<?xml version="1.0" encoding="UTF-8" standalone="no"?>
<!-- Created with Inkscape (http://www.inkscape.org/) -->

<svg
   version="1.1"
   id="svg1"
   width="427.89584"
   height="170.43004"
   viewBox="0 0 427.89584 170.43004"
   sodipodi:docname="figure_pipeline.svg"
   inkscape:version="1.3.2 (1:1.3.2+202311252150+091e20ef0f)"
   xmlns:inkscape="http://www.inkscape.org/namespaces/inkscape"
   xmlns:sodipodi="http://sodipodi.sourceforge.net/DTD/sodipodi-0.dtd"
   xmlns="http://www.w3.org/2000/svg"
   xmlns:svg="http://www.w3.org/2000/svg">
  <defs
     id="defs1" />
  <sodipodi:namedview
     id="namedview1"
     pagecolor="#ffffff"
     bordercolor="#000000"
     borderopacity="0.25"
     inkscape:showpageshadow="2"
     inkscape:pageopacity="0.0"
     inkscape:pagecheckerboard="0"
     inkscape:deskcolor="#d1d1d1"
     inkscape:zoom="1.6337967"
     inkscape:cx="243.29832"
     inkscape:cy="115.68146"
     inkscape:window-width="1848"
     inkscape:window-height="1016"
     inkscape:window-x="72"
     inkscape:window-y="27"
     inkscape:window-maximized="1"
     inkscape:current-layer="g1">
    <inkscape:page
       x="0"
       y="0"
       inkscape:label="1"
       id="page1"
       width="427.89584"
       height="170.43004"
       margin="0"
       bleed="0" />
  </sodipodi:namedview>
  <g
     id="g1"
     inkscape:groupmode="layer"
     inkscape:label="1">
    <path
       id="path1"
       d="M 156.402,104.895 H 138.004"
       style="fill:none;stroke:#000000;stroke-width:3.64292;stroke-linecap:round;stroke-linejoin:round;stroke-miterlimit:4;stroke-dasharray:none;stroke-opacity:1"
       transform="scale(1.3333333)" />
    <path
       id="path2"
       d="m 134.363,104.895 10.93,-10.93 h 7.285 l -10.93,10.93 10.93,10.929 h -7.285 z"
       style="fill:#000000;fill-opacity:1;fill-rule:evenodd;stroke:none"
       transform="scale(1.3333333)" />
    <path
       id="path3"
       d="m 2.047,2.047 h 130.629 v 25.59 H 2.047 Z"
       style="fill:none;stroke:#000000;stroke-width:4.09431;stroke-linecap:round;stroke-linejoin:round;stroke-miterlimit:4;stroke-dasharray:none;stroke-opacity:1"
       transform="scale(1.3333333)" />
    <text
       id="text3"
       xml:space="preserve"
       transform="matrix(1.3333333,0,0,1.3333333,20.65504,24.366064)"><tspan
         style="font-variant:normal;font-weight:normal;font-size:9px;font-family:'DejaVu Sans';writing-mode:lr-tb;fill:#000000;fill-opacity:1;fill-rule:nonzero;stroke:none"
         x="0 6.1739998 11.682 16.362 21.896999 24.75 28.278 33.813 37.349998 41.049 46.556999 49.049999 54.747002 57.599998 63.306 68.841003 74.538002 80.072998 83.772003 89.279999 92.807999 95.301003 100.8"
         y="0"
         sodipodi:role="line"
         id="tspan3">Base terrain generation</tspan></text>
    <path
       id="path4"
       d="M 2.125,51.477 H 133 v 74.57 H 2.125 Z"
       style="fill:none;stroke:#000000;stroke-width:3.55017;stroke-linecap:round;stroke-linejoin:round;stroke-miterlimit:4;stroke-dasharray:none;stroke-opacity:1"
       transform="scale(1.3333333)" />
    <path
       id="path5"
       d="M 158.605,51.477 H 289.48 v 74.57 H 158.605 Z"
       style="fill:none;stroke:#12a446;stroke-width:3.55017;stroke-linecap:round;stroke-linejoin:round;stroke-miterlimit:4;stroke-dasharray:none;stroke-opacity:1"
       transform="scale(1.3333333)" />
    <path
       id="path6"
       d="m 299.609,51.477 h 19.539 v 74.57 h -19.539 z"
       style="fill:none;stroke:#12a446;stroke-width:3.55017;stroke-linecap:round;stroke-linejoin:round;stroke-miterlimit:4;stroke-dasharray:none;stroke-opacity:1"
       transform="scale(1.3333333)" />
    <path
       id="path7"
       d="m 299.609,1.773 h 19.539 v 42.508 h -19.539 z"
       style="fill:none;stroke:#54bbc5;stroke-width:3.55017;stroke-linecap:round;stroke-linejoin:round;stroke-miterlimit:4;stroke-dasharray:none;stroke-opacity:1"
       transform="scale(1.3333333)" />
    <text
       id="text7"
       xml:space="preserve"
       transform="matrix(1.3333333,0,0,1.3333333,21.11966,90.63272)"><tspan
         style="font-style:normal;font-variant:normal;font-weight:bold;font-stretch:normal;font-size:9px;font-family:'DejaVu Sans';-inkscape-font-specification:'DejaVu Sans Bold';writing-mode:lr-tb;fill:#000000;fill-opacity:1;fill-rule:nonzero;stroke:none"
         x="0 3.96 9.4949999 13.041 16.74 22.247999 24.740999 30.438 33.291 36.792 42.327 48.033001 51.534 57.069 61.749001 67.283997 72.981003 76.509003 82.016998 85.544998 88.038002 93.537003 99.234001 156.573 162.27901 164.772 173.53799 179.235 181.728 187.23599 190.76401 193.257 198.756 204.453"
         y="0"
         sodipodi:role="line"
         id="tspan7">Terrain representation:Simulation:</tspan><tspan
         style="font-variant:normal;font-weight:normal;font-size:9px;font-family:'DejaVu Sans';writing-mode:lr-tb;fill:#000000;fill-opacity:1;fill-rule:nonzero;stroke:none"
         x="156.33295 159.84296 166.92595 172.63196 176.15996 178.65295 184.15195 189.84895 195.35695 197.84995 201.35995 204.21295 209.66695 215.20195 217.69495 223.19395 228.13495 230.62794 234.15594 239.47495"
         y="-49.699989"
         sodipodi:role="line"
         id="tspan8">(Optional) Velocity ﬁ</tspan><tspan
         style="font-variant:normal;font-weight:normal;font-size:9px;font-family:'DejaVu Sans';writing-mode:lr-tb;fill:#000000;fill-opacity:1;fill-rule:nonzero;stroke:none"
         x="247.98895 253.52396 256.01694"
         y="-49.699989"
         sodipodi:role="line"
         id="tspan10">eld</tspan></text>
    <text
       id="text10"
       xml:space="preserve"
       transform="matrix(0,-1.3333333,1.3333333,0,416.97694,150.19405)"><tspan
         style="font-variant:normal;font-weight:normal;font-size:9px;font-family:'DejaVu Sans';writing-mode:lr-tb;fill:#000000;fill-opacity:1;fill-rule:nonzero;stroke:none"
         x="0 5.7059999 8.1990004 16.965 22.662001 25.155001 30.663 34.191002 36.683998 42.182999 73.458 79.739998 85.238998 90.935997 94.463997 97.964996 103.464"
         y="0"
         sodipodi:role="line"
         id="tspan11">SimulationControl</tspan></text>
    <path
       id="path11"
       d="M 66.059,28.617 V 47.016"
       style="fill:none;stroke:#000000;stroke-width:3.64292;stroke-linecap:round;stroke-linejoin:round;stroke-miterlimit:4;stroke-dasharray:none;stroke-opacity:1"
       transform="scale(1.3333333)" />
    <path
       id="path12"
       d="M 66.059,50.656 55.129,39.727 v -7.286 l 10.93,10.93 10.929,-10.93 v 7.286 z"
       style="fill:#000000;fill-opacity:1;fill-rule:evenodd;stroke:none"
       transform="scale(1.3333333)" />
    <path
       id="path13"
       d="M 223.715,28.617 V 47.016"
       style="fill:none;stroke:#000000;stroke-width:3.64292;stroke-linecap:round;stroke-linejoin:round;stroke-miterlimit:4;stroke-dasharray:none;stroke-opacity:1"
       transform="scale(1.3333333)" />
    <path
       id="path14"
       d="m 223.715,50.656 -10.93,-10.929 v -7.286 l 10.93,10.93 10.926,-10.93 v 7.286 z"
       style="fill:#000000;fill-opacity:1;fill-rule:evenodd;stroke:none"
       transform="scale(1.3333333)" />
    <path
       id="path15"
       d="m 136.184,72.629 h 18.394"
       style="fill:none;stroke:#000000;stroke-width:3.64292;stroke-linecap:round;stroke-linejoin:round;stroke-miterlimit:4;stroke-dasharray:none;stroke-opacity:1"
       transform="scale(1.3333333)" />
    <path
       id="path16"
       d="m 158.223,72.629 -10.93,10.93 h -7.285 l 10.93,-10.93 -10.93,-10.93 h 7.285 z"
       style="fill:#000000;fill-opacity:1;fill-rule:evenodd;stroke:none"
       transform="scale(1.3333333)" />
    <text
       id="text16"
       xml:space="preserve"
       transform="matrix(1.3333333,0,0,1.3333333,11.899109,109.14392)"><tspan
         style="font-variant:normal;font-weight:normal;font-size:9px;font-family:'DejaVu Sans';writing-mode:lr-tb;fill:#000000;fill-opacity:1;fill-rule:nonzero;stroke:none"
         x="0 3.24 6.0929999 12.852 18.386999 20.879999 26.586 32.283001 35.811001"
         y="0"
         sodipodi:role="line"
         id="tspan16">- Height </tspan><tspan
         style="font-variant:normal;font-weight:normal;font-size:9px;font-family:'DejaVu Sans';writing-mode:lr-tb;fill:#000000;fill-opacity:1;fill-rule:nonzero;stroke:none"
         x="38.664001"
         y="0"
         id="tspan17">ﬁ</tspan><tspan
         style="font-variant:normal;font-weight:normal;font-size:9px;font-family:'DejaVu Sans';writing-mode:lr-tb;fill:#000000;fill-opacity:1;fill-rule:nonzero;stroke:none"
         x="44.325001 49.860001 52.353001 58.058998"
         y="0"
         sodipodi:role="line"
         id="tspan18">eld,</tspan><tspan
         style="font-variant:normal;font-weight:normal;font-size:9px;font-family:'DejaVu Sans';writing-mode:lr-tb;fill:#000000;fill-opacity:1;fill-rule:nonzero;stroke:none"
         x="0 3.24 6.0929999 11.547 16.775999 21.816 27.351 29.844 32.696999 38.403 42.102001 44.595001 50.300999"
         y="11.25"
         sodipodi:role="line"
         id="tspan19">- Voxel grid,</tspan><tspan
         style="font-variant:normal;font-weight:normal;font-size:9px;font-family:'DejaVu Sans';writing-mode:lr-tb;fill:#000000;fill-opacity:1;fill-rule:nonzero;stroke:none"
         x="0 3.24 6.0929999 11.799 15.327 20.834999 25.775999 30.663 36.198002 41.903999 44.757 47.25 52.757999 58.077 63.612 67.310997 71.990997"
         y="22.5"
         sodipodi:role="line"
         id="tspan20">- Stacked layers,</tspan><tspan
         style="font-variant:normal;font-weight:normal;font-size:9px;font-family:'DejaVu Sans';writing-mode:lr-tb;fill:#000000;fill-opacity:1;fill-rule:nonzero;stroke:none"
         x="0 3.24 6.0929999 11.799 18.729 23.903999 26.757 29.610001 32.463001 35.316002"
         y="33.75"
         sodipodi:role="line"
         id="tspan21">- SDF, ...</tspan><tspan
         style="font-variant:normal;font-weight:normal;font-size:9px;font-family:'DejaVu Sans';writing-mode:lr-tb;fill:#000000;fill-opacity:1;fill-rule:nonzero;stroke:none"
         x="157.29173 160.53174 163.38474 168.40674 173.91473 177.61374 181.14174 183.63474 188.57574 191.06874 196.60374 199.45674 204.99174 213.75774 216.25073 220.93074 225.61073 228.10374 233.60274"
         y="0"
         sodipodi:role="line"
         id="tspan22">- Particle emission</tspan><tspan
         style="font-variant:normal;font-weight:normal;font-size:9px;font-family:'DejaVu Sans';writing-mode:lr-tb;fill:#000000;fill-opacity:1;fill-rule:nonzero;stroke:none"
         x="157.29173 160.53174 163.38474 170.31474 175.84975 179.37775 184.88574 189.82674 195.52374 204.28973 209.82474 215.52174 219.04974 221.90274 227.41074 233.10774 238.81374"
         y="11.25"
         sodipodi:role="line"
         id="tspan23">- Detachment and </tspan><tspan
         style="font-variant:normal;font-weight:normal;font-size:9px;font-family:'DejaVu Sans';writing-mode:lr-tb;fill:#000000;fill-opacity:1;fill-rule:nonzero;stroke:none"
         x="157.29173 162.99774 168.53275 174.23874 179.73775 184.41774 186.91074 190.43874 192.93175 198.43074 204.12775 206.98074 211.92174 217.42075 226.18674 231.89275 237.58974 241.11774 246.62573 250.15375 252.64674 258.14575"
         y="22.5"
         sodipodi:role="line"
         id="tspan24">deposition computation</tspan></text>
    <path
       id="path24"
       d="m 158.73,2.047 h 130.625 v 25.59 H 158.73 Z"
       style="fill:none;stroke:#54bbc5;stroke-width:4.09431;stroke-linecap:round;stroke-linejoin:round;stroke-miterlimit:4;stroke-dasharray:none;stroke-opacity:1"
       transform="scale(1.3333333)" />
  </g>
</svg>
