<?xml version="1.0"?>
<svg width="2480" height="3507.43" xmlns="http://www.w3.org/2000/svg" xmlns:xlink="http://www.w3.org/1999/xlink">
 <metadata id="metadata247">image/svg+xml</metadata>
 <defs>
  <linearGradient id="linearGradient9382">
   <stop stop-color="#000000" id="stop9384" offset="0"/>
   <stop stop-color="#000000" stop-opacity="0" id="stop9386" offset="1"/>
  </linearGradient>
  <linearGradient gradientUnits="userSpaceOnUse" id="linearGradient3621" y2="493.65701" x2="1108.0601" y1="1189.77" x1="643.98602">
   <stop stop-color="#e87877" id="stop3623" offset="0"/>
   <stop stop-color="#e87877" id="stop3625" offset="0.219608"/>
   <stop stop-color="#f4e6e2" id="stop3627" offset="1"/>
  </linearGradient>
  <path d="m0,0z" id="path11"/>
  <path d="m31.6693,214.835007l0,88.330704l270.157024,0l0,-88.330704l-270.157024,0z" id="path15"/>
  <path d="m73.165398,0l0,715.827026l268.661018,0c54.677185,0 98.503906,-7.322815 131.511993,-21.653503c33.165405,-14.503906 58.992096,-36.834595 77.669281,-67.007874c18.661438,-30 28.157532,-61.496094 28.157532,-94.503906c0,-30.48822 -8.33075,-59.322815 -24.992126,-86.330719c-16.503906,-26.992096 -41.669312,-48.834595 -75.165405,-65.496094c43.322815,-12.661407 76.48822,-34.330688 99.826782,-64.834625c23.338623,-30.661377 34.992126,-66.834579 34.992126,-108.503983c0,-33.496094 -7.165344,-64.661392 -21.322815,-93.496094c-14.173157,-28.83461 -31.669312,-50.9921 -52.503906,-66.6614c-20.834595,-15.669298 -46.992065,-27.338598 -78.330688,-35.338599c-31.338593,-8 -69.842499,-12 -115.496002,-12l-273.007988,0l0.000198,-0.00023zm94.834404,415.008209l154.835007,0c41.826813,0 72,2.818909 90.330688,8.330719c24,7.165344 42.173218,18.992096 54.330719,35.669312c12.173187,16.661377 18.330688,37.496094 18.330688,62.48822c0,23.66925 -5.653534,44.677185 -16.992096,62.677185c-11.496094,18.157471 -27.826813,30.488159 -48.834595,37.165405c-21.165405,6.661377 -57.496094,10 -108.992004,10l-143.007996,0l0,-216.331024l-0.000412,0.000183zm0,-330.50399l178.172989,0c30.661407,0 52.157532,1.165352 64.48822,3.32283c21.842499,4 40,10.503899 54.677185,19.669304c14.661407,9.007866 26.661407,22.330704 36.157501,39.669296c9.338593,17.496094 14.173187,37.496094 14.173187,60.330704c0,26.6772 -6.834625,49.842484 -20.503876,69.669296c-13.669312,19.669312 -32.661407,33.496094 -56.992096,41.496094c-24.173218,7.842529 -59.165405,11.842499 -104.677002,11.842499l-165.496017,0l0,-245.999992l-0.000092,-0.000031z" id="path19"/>
  <path d="m74.173203,0l0,715.827026l142.660995,0l169.338989,-506.819c15.653503,-47.181091 27.165405,-82.503899 34.157501,-105.999992c8.173248,25.999992 20.834625,64.330696 38.173218,114.818993l171.322998,498l127.512024,0l0,-715.827026l-91.338623,0l0,599.164978l-208,-599.164978l-85.496094,0l-207.008011,609.338989l0,-609.338989l-91.3228,0l-0.000198,0z" id="path23"/>
  <path d="m587.827026,251.007996l94.834595,-24c-19.826782,-77.669296 -55.653503,-137.007996 -107.164978,-177.999996c-51.669312,-40.834599 -114.661011,-61.1811 -189.322998,-61.1811c-77.165405,0 -139.843018,15.669301 -188.173019,47.007901c-48.330688,31.496101 -85.165398,76.992096 -110.331009,136.50399c-25.165398,59.669296 -37.842487,123.668991 -37.842487,191.999985c0,74.48822 14.173199,139.496033 42.677204,194.992035c28.503899,55.496094 68.992096,97.669312 121.668991,126.503967c52.488205,28.834595 110.331009,43.165405 173.496017,43.165405c71.669281,0 131.826996,-18.173157 180.66098,-54.661377c48.834595,-36.503906 82.834595,-87.669312 102,-153.843018l-93.165405,-22c-16.661377,52.173218 -40.661377,90 -72.330688,113.843018c-31.496094,23.826782 -71.165405,35.669312 -119.165009,35.669312c-55.007904,0 -100.834991,-13.181091 -137.843002,-39.511841c-36.992096,-26.488159 -62.992096,-61.826782 -77.826797,-106.330963c-14.992096,-44.330719 -22.503906,-90.157501 -22.503906,-137.33902c0,-60.992096 8.834656,-114 26.503906,-159.496002c17.826797,-45.3228 45.338593,-79.3228 82.834595,-101.827003c37.496094,-22.503899 78,-33.669296 121.669006,-33.669296c52.992096,0 97.826813,15.3386 134.66098,45.826797c36.834595,30.677208 61.669312,76.173195 74.661438,136.345985l0.001587,0.001221z" id="path27"/>
  <path d="m412.173004,280.834991l0,83.826813l303.165009,0.503937l0,-265.496017c-46.503906,-37.165405 -94.503906,-65.007893 -144,-83.842504c-49.51178,-18.66139 -100.330994,-28 -152.330994,-28c-70.346497,0 -134.345978,15.00791 -191.669006,45.1811c-57.51181,30 -100.834999,73.653507 -130.173004,130.488003c-29.3386,57.007904 -44,120.677017 -44,191.008011c0,69.669281 14.6614,134.66098 43.842499,194.992004c28.992104,60.503906 70.992096,105.338989 125.654007,134.677002c54.6772,29.165405 117.668991,43.826782 189.00798,43.826782c51.669312,0 98.503906,-8.330688 140.330994,-25.165405c41.826782,-16.661377 74.661438,-40 98.330688,-70c23.842529,-30 41.842529,-69.007874 54.33075,-117.164978l-85.496155,-23.496094c-10.834595,36.488159 -24.157471,65.165405 -40,86c-16,20.834595 -38.834595,37.496094 -68.503876,50c-29.496094,12.488159 -62.48819,18.834595 -98.48819,18.834595c-43.338593,0 -80.834595,-6.677185 -112.346008,-19.842529c-31.653503,-13.165405 -56.992096,-30.503906 -76.488205,-52c-19.338593,-21.496094 -34.330688,-44.992065 -45.16539,-70.834595c-18.173203,-44.157471 -27.338608,-92.157471 -27.338608,-144c0,-63.826782 10.992111,-117.164993 32.992111,-160.156982c22,-43.007904 54,-74.834602 96,-95.669296c42,-20.834595 86.503906,-31.3386 133.669006,-31.3386c41.165405,0 81.165405,8 120.173004,23.842506c39.165405,15.653496 68.661377,32.48819 88.834595,50.48819l0,133.339005l-210.330994,0l-0.000214,-0.000946z" id="path31"/>
  <path d="m76.173203,0l0,715.827026l97.16539,0l376.000031,-562l0,562l90.834595,0l0,-715.827026l-97.165405,0l-376.000015,562.504028l0,-562.504028l-90.834595,0z" id="path35"/>
  <path d="m79.165398,0l0,715.827026l517.495979,0l0,-84.48822l-422.834991,0l0,-219.164978l395.999969,0l0,-84l-395.999969,0l0,-243.668999l439.511993,0l0,-84.503899l-534.172981,0l0,-0.00093z" id="path39"/>
  <path d="m281.669006,0l-277.338986,715.827026l102.676999,0l186,-520c14.992096,-41.653503 27.496094,-80.818893 37.496094,-117.164993c11.165405,39.007896 24,78 38.661407,117.164993l193.33902,520l96.661377,0l-280.330994,-715.827026l-97.165405,0l0.000488,0z" id="path43"/>
  <path d="m45.0079,230l89.322803,7.826767c4.173233,-35.826797 14,-65.16539 29.496094,-88.157501c15.511795,-23.007896 39.511795,-41.496094 72,-55.669296c32.503891,-14.173203 69.181107,-21.165398 109.843002,-21.165398c36.157501,0 68,5.338577 95.669312,16c27.669281,10.834595 48.330688,25.496101 61.826782,44.173195c13.496094,18.818909 20.330688,39.165405 20.330688,61.3228c0,22.503906 -6.488159,42 -19.669281,58.83461c-12.992096,16.834579 -34.48819,30.834579 -64.330688,42.173172c-19.322815,7.496063 -61.669312,19.165405 -127.496033,34.992126c-65.669281,15.842499 -111.826996,30.677185 -138.172989,44.677185c-34.157501,17.826813 -59.653503,40.157501 -76.488197,66.661407c-16.6772,26.503906 -25.007904,56.157501 -25.007904,89.165405c0,36 10.173203,69.826782 30.6772,101.164978c20.488197,31.496094 50.488197,55.338623 89.826805,71.669312c39.496094,16.157471 83.16539,24.330688 131.339005,24.330688c53.165405,0 99.826782,-8.503906 140.488007,-25.669312c40.503906,-16.992065 71.669281,-42.157471 93.51181,-75.322754c21.653503,-33.181152 33.496094,-70.834595 35.165405,-112.835022l-90.834625,-6.834656c-5.007874,45.165405 -21.496094,79.496094 -49.669312,102.487976c-28.173187,23.181152 -69.669281,34.677246 -124.66098,34.677246c-57.338593,0 -99.007904,-10.503906 -125.339005,-31.496094c-26.173203,-21.007935 -39.338608,-46.346497 -39.338608,-75.842529c0,-25.826782 9.338593,-46.992096 27.842514,-63.496094c18.330688,-16.661407 65.826797,-33.669312 142.835007,-51.007904c76.992096,-17.496094 129.826996,-32.661407 158.488007,-45.653503c41.669312,-19.338593 72.503906,-43.669281 92.346497,-73.007904c19.826782,-29.496094 29.653503,-63.496094 29.653503,-101.826996c0,-38.173203 -10.834595,-74 -32.661438,-107.668999c-21.826782,-33.669296 -53.165344,-59.842495 -93.999969,-78.677197c-40.834595,-18.6614 -86.834595,-28 -137.826996,-28c-64.834595,0 -119.164993,9.33858 -162.835007,28.3465c-43.842499,18.834599 -78.173203,47.165398 -103.165001,85.165398c-24.834599,37.826805 -38,80.834602 -39.165398,128.660988l-0.001011,0.001404z" id="path47"/>
  <path d="m259.338989,0l0,631.338989l-235.842999,0l0,84.48822l567.33897,0l0,-84.48822l-236.834991,0l0,-631.338989l-94.661407,0l0.000427,0z" id="path51"/>
  <path d="m147.007996,0l-81.511803,0l0,715.827026l87.842491,0l0,-255.322998c37.165405,46.503906 84.488205,69.826782 142,69.826782c32,0 62.157501,-6.503906 90.661407,-19.322784c28.503906,-12.834595 51.826813,-31.007904 70.330719,-54.173187c18.330688,-23.338623 32.834564,-51.338623 43.165375,-84.330719c10.503906,-32.834595 15.669342,-68 15.669342,-105.338989c0,-88.992111 -22.000031,-157.669014 -66.000031,-206.157001c-43.826782,-48.5039 -96.661407,-72.677199 -158.156982,-72.677199c-61.181122,0 -109.181015,25.4961 -144.000015,76.677203l0,-65.007903l-0.000504,-0.00023zm-1.00737,263.165253c0,-62.157516 8.503952,-106.99202 25.338608,-134.660995c27.669296,-45.338608 65.16539,-68.000008 112.330994,-68.000008c38.503906,0 71.669312,16.6614 99.669312,50.157501c28,33.3386 42,83.007896 42,149.165001c0,67.669281 -13.51181,117.668976 -40.330719,149.842987c-26.834595,32.157501 -59.338593,48.330688 -97.338593,48.330688c-38.503891,0 -71.669296,-16.661377 -99.669296,-50c-28,-33.338593 -42,-81.669281 -42,-144.834991l-0.000305,-0.000183z" id="path55"/>
  <path d="m86.834602,0l0,450.173004l-77.496102,0l0,68.330719l77.496102,0l0,55.165405c0,34.834595 3.165344,60.834595 9.338577,77.669312c8.48819,22.834595 23.3228,41.322754 44.6614,55.496094c21.338608,14.173157 51.165405,21.165405 89.669296,21.165405c24.661407,0 52,-2.834656 82,-8.834656l-13.165405,-76.661438c-18.173187,3.322815 -35.51178,4.992126 -51.842484,4.992126c-26.661407,0 -45.496109,-5.66925 -56.488205,-17.165405c-11.181107,-11.322754 -16.6772,-32.661377 -16.6772,-64l0,-47.826782l101.008011,0l0,-68.330719l-101.008011,0l0,-450.172985l-87.496101,0l0.000122,-0.00008z" id="path59"/>
  <path d="m49.826801,-43.0079l85.511791,-12.6614c3.496063,-26.3307 13.496109,-45.496098 29.669312,-57.6693c21.826797,-16.157494 51.653503,-24.330696 89.3228,-24.330696c40.83461,0 72.173203,8.173233 94.330704,24.330696c22.173218,16.330704 37.007904,39.165398 44.834595,68.3307c4.677185,18 6.677185,55.5118 6.330719,112.835003c-38.330688,-45.165403 -86.157501,-67.826793 -143.496002,-67.826793c-71.322815,0 -126.503998,25.669299 -165.49601,77.165393c-39.0079,51.3386 -58.6614,113.165001 -58.6614,185.008003c0,49.496094 8.99213,95.165405 26.834602,136.992004c18,41.842499 44,74.173187 77.999992,97.007904c34,22.661407 74,34.157501 119.827026,34.157501c61.165375,0 111.668976,-24.834625 151.338989,-74.330719l0,62.503876l81.165405,0l0,-448.172981c0,-80.661401 -8.330719,-138 -24.677216,-171.669014c-16.48819,-33.669296 -42.48819,-60.330704 -78.157501,-79.826782c-35.669281,-19.496109 -79.496094,-29.338608 -131.668991,-29.338608c-61.826813,0 -111.827011,14 -149.827003,41.842499c-38.173195,27.826797 -56.503895,69.653503 -55.181095,125.654003l-0.000717,-0.001289zm72.677921,311.513271c0,-67.999985 13.496101,-117.668991 40.6614,-148.834999c27.007904,-31.3386 60.834595,-46.834602 101.495987,-46.834602c40.346497,0 74.173218,15.496101 101.512024,46.503899c27.322784,31.165398 40.992096,79.826805 40.992096,146.331017c0,63.496094 -14,111.338989 -42.157501,143.495972c-28.173218,32.173218 -62.173218,48.330719 -101.843018,48.330719c-38.992096,0 -72.157501,-15.826813 -99.669296,-47.669312c-27.3228,-31.653503 -40.992096,-78.818909 -40.992096,-141.322998l0.000404,0.000305z" id="path63"/>
  <path d="m66,0l0,715.827026l87.826797,0l0,-256.819c41.007904,47.496094 92.83461,71.322784 155.339005,71.322784c38.330688,0 71.669312,-7.66925 100,-22.834595c28.330688,-14.992096 48.661407,-36 60.834595,-62.661377c12.173218,-26.661407 18.330688,-65.496124 18.330688,-116.173004l0,-328.661015l-88,0l0,328.661015c0,43.842499 -9.496033,75.842499 -28.503876,95.842499c-18.992096,20 -46,30.157501 -80.818909,30.157501c-26,0 -50.503906,-6.834656 -73.511795,-20.330719c-22.992111,-13.496094 -39.3228,-31.826782 -48.992111,-54.992096c-9.842514,-23.007904 -14.6772,-55.007904 -14.6772,-95.669281l0,-283.669019l-87.826797,0l-0.000397,-0.00072z" id="path67"/>
  <path d="m64,0l0,715.827026l87.826797,0l0,-715.827026l-87.826797,0z" id="path71"/>
  <path d="m66.330704,0l0,715.827026l88,0l0,-408.157013l207.999985,210.834991l113.669006,0l-198.173004,-192.330963l218.346008,-326.173022l-108.503998,0l-171.339005,265.164996l-62,-59.669281l0,-205.496005l-88.000008,0l0.001015,-0.00073z" id="path75"/>
  <path d="m66,0l0,518.504028l79.007904,0l0,-73.669312c38.157501,56.992126 93.16539,85.496094 164.992004,85.496094c31.338593,0 60,-5.66925 86.173187,-16.834595c26.330719,-11.322784 45.826813,-26 58.834595,-44.330688c13.165405,-18.157501 22.157501,-39.826782 27.496124,-64.834595c3.165344,-16.330688 4.834625,-44.834595 4.834625,-85.496094l0,-318.834999l-88,0l0,315.49601c0,35.669281 -3.338562,62.503876 -10.173187,80.330688c-6.834656,17.669312 -18.992096,31.842499 -36.330688,42.346497c-17.496124,10.661407 -37.826813,16 -61.338623,16c-37.496094,0 -69.669281,-12 -96.992096,-35.669281c-27.16539,-23.842499 -40.6772,-68.834625 -40.6772,-135.33902l0,-283.165004l-87.826797,0l0.000153,0.00027z" id="path79"/>
  <path d="m404.330994,190l86.330719,-11.338593c-9.322845,-59.496109 -33.496124,-106.157005 -72.48822,-139.827007c-38.834595,-33.6693 -86.677185,-50.50389 -143.338989,-50.50389c-70.83461,0 -128,23.16539 -171.008003,69.4961c-43.165401,46.3465 -64.818901,112.834995 -64.818901,199.511982c0,56 9.32283,104.992004 27.826797,146.992004c18.661407,42 46.834602,73.496124 84.83461,94.503906c37.826797,20.992096 79.16539,31.496124 123.669006,31.496124c56.330688,0 102.487976,-14.33075 138.156982,-42.834625c35.842499,-28.48819 58.834595,-68.834595 69.007904,-121.322998l-85.496124,-13.165405c-8.173218,34.818909 -22.503876,60.992096 -43.181091,78.661407c-20.661407,17.496094 -45.653503,26.330688 -74.992096,26.330688c-44.330704,0 -80.330704,-15.826782 -108,-47.669281c-27.669296,-31.669312 -41.496094,-81.826813 -41.496094,-150.503998c0,-69.653519 13.3228,-120.331009 40.157501,-152.000008c26.6772,-31.496101 61.511795,-47.3228 104.503998,-47.3228c34.503906,0 63.165405,10.6614 86.330688,31.826805c23.165405,21.165398 37.842499,53.669296 44,97.669281l0.001312,0.000305z" id="path83"/>
  <path d="m33.165401,259.338989c0,96 26.6614,167.164978 80.173199,213.322998c44.488213,38.346497 98.834602,57.669312 162.991997,57.669312c71.338623,0 129.669006,-23.322815 174.835022,-70.157501c45.338593,-46.677216 67.842499,-111.165009 67.842499,-193.511993c0,-66.83461 -10,-119.323013 -30,-157.496017c-20,-38.330696 -49.181122,-67.999996 -87.338593,-89.165398c-38.330719,-21.165399 -80,-31.669299 -125.33902,-31.669299c-72.503891,0 -131.164978,23.165401 -175.999985,69.842502c-44.834602,46.488197 -67.165401,113.495995 -67.165401,201.165001l0.000282,0.000397zm90.330418,-0.000397c0,-66.503906 14.503906,-116.173004 43.511795,-149.165001c28.992111,-33.165405 65.496109,-49.6693 109.323013,-49.6693c43.669281,0 80,16.661396 109.007996,49.826801c28.834595,33.165398 43.322784,83.842491 43.322784,151.84301c0,64.157501 -14.48819,112.834991 -43.653473,145.826996c-29.181122,33.007904 -65.338623,49.496094 -108.677002,49.496094c-43.826813,0 -80.330719,-16.48819 -109.323013,-49.322815c-29.007904,-32.834595 -43.511803,-82.503876 -43.511803,-148.834991l-0.000298,-0.000793z" id="path87"/>
  <path d="m404.330994,64c-32.661407,-27.6693 -64,-47.1654 -94,-58.6614c-30.157501,-11.3386 -62.503891,-17.0079 -96.992111,-17.0079c-57.007889,0 -100.676994,13.8425 -131.338989,41.6693c-30.503902,27.826801 -45.826813,63.496101 -45.826813,106.660995c0,25.51181 5.653538,48.6772 17.3228,69.669312c11.511803,21.007889 26.6772,37.842499 45.3386,50.503891c18.834602,12.661407 39.826805,22.330688 63.3386,28.834595c17.165405,4.503937 43.165405,8.992126 78,13.165405c70.992111,8.503937 123.323013,18.503906 156.835007,30.330688c0.330719,12 0.48819,19.669312 0.48819,22.834625c0,35.826782 -8.330719,61.165375 -24.992096,75.669281c-22.330688,20 -55.842499,29.826782 -100,29.826782c-41.338608,0 -71.842499,-7.165344 -91.669296,-21.669281c-19.669312,-14.48819 -34.173187,-40.157501 -43.669312,-76.992096l-85.826782,11.826782c7.826771,36.677216 20.6614,66.503906 38.488197,89.007904c17.842499,22.661407 43.842506,40.157501 77.669289,52.330719c33.842499,12.173187 73.007904,18.330658 117.669006,18.330658c44.330688,0 80.173218,-5.322815 107.842987,-15.66925c27.653503,-10.48822 48,-23.496124 61.165405,-39.322815c12.992126,-15.842499 22,-35.669312 27.322815,-59.842499c2.834656,-14.992096 4.330719,-42 4.330719,-80.992126l0,-117.164993c0,-81.842484 1.842499,-133.511986 5.669281,-155.007988c3.669281,-21.6693 11.165405,-42.503899 22.173187,-62.330699l-91.842499,0c-8.992126,18.1732 -14.992096,39.496101 -17.496094,63.999999l-0.000092,0.000111zm-7.322723,196.330872c-32,-13.16539 -79.842499,-24.157486 -143.512009,-33.322784c-36.157501,-5.181107 -61.826797,-11.007904 -76.661407,-17.51181c-15.007889,-6.48819 -26.661377,-16 -34.661377,-28.661392c-8.173248,-12.503906 -12.346512,-26.330704 -12.346512,-41.669312c0,-23.496094 9.007858,-42.992096 26.6772,-58.661392c17.669312,-15.496101 43.669312,-23.3386 77.826797,-23.3386c33.842499,0 64,7.338577 90.330719,22.173203c26.346497,14.834595 45.842468,35.165398 58.173187,60.834602c9.496063,19.826797 14.173187,49.16539 14.173187,87.826797l0,32.330688l0.000214,0z" id="path91"/>
  <path d="m66,0l0,518.504028l78.503906,0l0,-72.677185c16.330688,25.338593 38,45.842499 64.992096,61.181091c27.007904,15.496094 57.842499,23.322815 92.330719,23.322815c38.346497,0 69.842468,-8 94.346466,-24.000031c24.661407,-16 42,-38.157501 52,-66.834595c41.165405,60.503906 94.48819,90.834625 160.157013,90.834625c51.496094,0 91.007874,-14.33075 118.677002,-42.834625c27.653503,-28.48819 41.496094,-72.330719 41.496094,-131.496002l0,-355.999992l-87.338623,0l0,326.661003c0,35.165405 -2.834595,60.503906 -8.503906,76c-5.826782,15.338593 -16.157532,27.842499 -30.992126,37.338593c-15.007874,9.338593 -32.661377,14.173218 -52.834595,14.173218c-36.503845,0 -66.661377,-12.173218 -90.834595,-36.503906c-24,-24.173187 -36.173187,-63.007904 -36.173187,-116.330994l0,-301.338993l-87.826782,0l0,336.834995c0,39.165405 -7.165375,68.503906 -21.496124,88c-14.330688,19.496094 -37.669281,29.338593 -70.330688,29.338593c-24.677216,0 -47.51181,-6.503937 -68.503891,-19.669312c-21.007919,-13.007874 -36.330704,-32 -45.669312,-57.007874c-9.496063,-25.165405 -14.173203,-61.322815 -14.173203,-108.488007l0,-269.008006l-87.82679,0l0.000526,0.00056z" id="path95"/>
  <path d="m402.330994,0l0,65.496101c-32.834595,-51.496101 -81.165405,-77.165401 -144.992004,-77.165401c-41.338593,0 -79.338593,11.3386 -114,34.173201c-34.6772,22.661398 -61.511803,54.503897 -80.6772,95.496099c-18.9921,40.834595 -28.488197,87.669296 -28.488197,140.835022c0,51.669281 8.661419,98.661377 25.826797,140.834991c17.3386,42.157501 43.165398,74.503906 77.669304,96.834595c34.503891,22.503937 73.16539,33.826813 115.826996,33.826813c31.16539,0 59.007889,-6.661438 83.338608,-19.826813c24.503906,-13.165375 44.330688,-30.330688 59.669281,-51.496094l0,256.819l87.322815,0l0,-715.827025l-81.496094,0l-0.000305,-0.00049zm-277.826706,258.83548c0,-66.503891 14,-116.172989 42,-149.007988c28,-32.818901 60.992096,-49.322803 99.16539,-49.322803c38.330719,0 70.992126,15.826801 97.826813,47.165401c26.834595,31.338608 40.330688,79.338608 40.330688,143.826996c0,71.007889 -13.653503,123.008011 -40.992096,156.173019c-27.338593,33.338593 -61.007904,49.826782 -101.164978,49.826782c-39.007919,0 -71.669312,-16 -97.842514,-47.826782c-26.157501,-31.842529 -39.3228,-82.173218 -39.3228,-150.835022l-0.000504,0.000397z" id="path99"/>
  <path d="m66.330704,614.661011l0,101.164978l88,0l0,-101.164978l-88,0zm0,-614.661011l0,518.504028l88,0l0,-518.504028l-88,0z" id="path103"/>
  <path d="m420.834991,167.007996l90.834595,-11.181091c-14.330688,-53.165413 -40.834595,-94.330715 -79.496094,-123.654003c-38.834595,-29.165401 -88.346497,-43.842501 -148.503998,-43.842501c-75.842499,0 -136,23.338599 -180.330994,69.999998c-44.503902,46.6772 -66.6772,112.172989 -66.6772,196.503998c0,87.338608 22.503899,154.991989 67.3386,203.164993c45.007896,48.173187 103.165001,72.330688 174.834999,72.330688c69.338623,0 126,-23.669281 169.826996,-70.834595c44,-47.165405 66.000031,-113.669006 66.000031,-199.164978c0,-5.32283 -0.157532,-13.165405 -0.48822,-23.496109l-386.676994,0c3.165352,-57.007889 19.3386,-100.661011 48.330696,-130.835007c29.007904,-30.330696 65.007904,-45.496101 108.345993,-45.496101c32.157501,0 59.653503,8.503944 82.48822,25.496101c22.834595,16.834602 40.834595,43.826797 54.173187,81.007904l0.000183,0.000702zm-288.504181,142.156281l289.496002,0c-3.826782,43.496094 -14.992096,76.330719 -33.165405,98c-28,33.842499 -64.330688,50.834595 -108.834991,50.834595c-40.330704,0 -74.330704,-13.496094 -101.827011,-40.503876c-27.496094,-26.992126 -42.661392,-63.165405 -45.669296,-108.331024l0.000702,0.000305z" id="path107"/>
  <path d="m62,-199.669006l-9.826771,82.503899c19.322803,-5.165352 36.000004,-7.842522 50.3307,-7.842522c19.496101,0 35.165398,3.338577 46.834602,9.842522c11.826797,6.503937 21.3228,15.496101 28.834595,27.3386c5.653549,8.661415 14.488205,30.488197 26.83461,65.322798c1.653534,5.00787 4.330704,12 7.826767,21.4961l-196.661003,519.512004l94.6614,0l108,-300.172989c13.826797,-38.157501 26.503906,-78.157501 37.496124,-120.156998c10.173187,40.330704 22.173187,79.653519 36.173187,118.156998l110.834991,302.172989l87.826782,0l-197.164978,-527.338964c-21.165405,-56.992098 -37.669312,-96.173212 -49.338593,-117.669001c-15.653503,-28.992096 -33.496109,-50.157501 -53.653503,-63.669296c-20.346497,-13.496109 -44.346497,-20.330704 -72.346504,-20.330704c-16.992096,0 -35.826797,3.669296 -56.661396,10.834595l-0.001011,-0.000031z" id="path111"/>
  <path d="m257.826996,78.6614l12.677216,-77.6535c-24.677216,-5.1811 -46.83461,-7.84252 -66.330719,-7.84252c-32,0 -56.6772,5.00787 -74.346497,15.1654c-17.496094,10 -29.826797,23.3386 -36.992096,39.842491c-7.165352,16.330696 -10.834602,50.992096 -10.834602,103.653999l0,298.346008l-64.503897,0l0,68.330688l64.503897,0l0,128.504028l87.496101,52.661377l0,-181.164978l88.330688,0l0,-68.330719l-88.330688,0l0,-303.164993c0,-25.181099 1.51181,-41.181099 4.503937,-48.346504c3.165359,-7.165344 8.173233,-12.834595 15.165405,-17.165398c7.007874,-4.157478 17.007904,-6.330711 30,-6.330711c9.842514,0 22.661392,1.165352 38.661407,3.496063l-0.000153,-0.000732z" id="path115"/>
  <path d="m30.8346,154.835007l86.834597,13.669296c4.834656,-34.834595 18.503899,-61.496094 40.834602,-80.173203c22.157501,-18.503899 53.3228,-27.826801 93.496094,-27.826801c40.330704,0 70.330704,8.330723 89.826797,24.661404c19.51181,16.503906 29.338623,35.842499 29.338623,57.842491c0,20 -8.661438,35.496109 -26,46.992111c-12,7.826767 -42,17.669296 -89.826813,29.669296c-64.330704,16.330704 -109.165009,30.330704 -134,42.330704c-24.834602,11.826782 -43.842499,28.330688 -56.6772,49.338593c-12.834602,20.992096 -19.3228,44.157501 -19.3228,69.496094c0,23.165405 5.32283,44.503906 16,64.173218c10.488197,19.826813 24.992096,36.157501 43.165398,49.165405c13.669304,10 32.330696,18.661407 55.826805,25.653473c23.669312,7.007874 49.007904,10.503906 76,10.503906c40.6772,0 76.330704,-6 107.164993,-17.669312c30.834625,-11.653473 53.51181,-27.496063 68.173218,-47.496063c14.661407,-20.157501 24.661407,-46.834595 30.157501,-80.330719l-85.826813,-11.826813c-4,26.661407 -15.338593,47.496124 -34,62.48822c-18.661407,15.007904 -45.165405,22.503906 -79.338593,22.503906c-40.330704,0 -69.165405,-6.661438 -86.330704,-20c-17.3228,-13.338623 -26,-28.992126 -26,-46.834595c0,-11.496094 3.669296,-21.669312 10.83461,-30.834595c7.165344,-9.496094 18.330688,-17.165405 33.669296,-23.496124c8.834641,-3.165344 34.661392,-10.661377 77.669281,-22.330688c62.157516,-16.677216 105.496017,-30.173187 130.000015,-40.834595c24.661377,-10.503906 44,-26 58,-46.173203c14,-20.157501 20.992096,-45.165405 20.992096,-75.165405c0,-29.3228 -8.661438,-56.834602 -25.669312,-82.834602c-17.165405,-25.826797 -41.826782,-45.826797 -74,-59.999996c-32.157501,-14.1575 -68.661407,-21.165401 -109.322983,-21.165401c-67.496109,0 -118.835007,14 -154.173012,42.000001c-35.3228,27.999998 -57.826797,69.496099 -67.496099,124.503996l0.000401,0z" id="path119"/>
  <path d="m66,-198.660995l0,717.164963l80,0l0,-67.338593c18.834595,26.330719 40.173203,46.173218 64,59.338593c23.669296,13.165405 52.503906,19.826782 86.330688,19.826782c44.330719,0 83.338623,-11.496094 117.165009,-34.157471c34,-22.834595 59.51181,-55.007904 76.677216,-96.503906c17.322784,-41.496094 26,-87.007874 26,-136.503998c0,-52.992096 -9.51181,-100.834991 -28.677216,-143.338997c-18.992096,-42.488197 -46.661407,-74.992096 -82.992096,-97.653498c-36.330688,-22.5039 -74.503906,-33.842501 -114.503998,-33.842501c-29.338593,0 -55.496109,6.173231 -78.83461,18.503901c-23.338593,12.3307 -42.330688,28.000002 -57.338593,46.8346l0,-252.331005l-87.826797,0l0.000397,0.001129zm79.495697,454.990891c0,-66.661407 13.51181,-116 40.503906,-148.000008c27.007904,-31.826797 59.826797,-47.826797 98.173218,-47.826797c38.992096,0 72.48819,16.503899 100.330994,49.669304c27.826782,32.992096 41.826782,84.157501 41.826782,153.496002c0,66.157501 -13.669281,115.496002 -40.834595,148.503998c-27.165405,32.834595 -59.669281,49.322784 -97.322784,49.322784c-37.51181,0 -70.6772,-17.496094 -99.51181,-52.48819c-28.834595,-35.007904 -43.16539,-86 -43.16539,-152.677002l-0.00032,-0.000092z" id="path123"/>
  <path d="m65.007896,0l0,518.504028l78.992104,0l0,-78.503906c20.173203,36.661407 38.834595,61.007904 56,72.661438c17.007904,11.66925 35.826797,17.66925 56.330688,17.66925c29.669312,0 59.669312,-9.496033 90.330719,-28.330688l-30.330719,-81.669281c-21.322784,12.834595 -42.834564,19.165375 -64.330688,19.165375c-19.338593,0 -36.503906,-5.826752 -51.826797,-17.322784c-15.338608,-11.669312 -26.173203,-27.669312 -32.6772,-48.173187c-9.826767,-31.165405 -14.661407,-65.338623 -14.661407,-102.503998l0,-271.496016l-87.826797,0l0.000099,-0.00023z" id="path127"/>
  <path d="m405.826996,0l0,76.173203c-40.48822,-58.677202 -95.322784,-87.842503 -164.660995,-87.842503c-30.503906,0 -59.165405,5.84252 -85.669296,17.4961c-26.488205,11.6693 -46.157501,26.5039 -58.992104,44.1732c-13.007904,17.826797 -22,39.496101 -27.165398,65.165398c-3.51181,17.3386 -5.338585,44.6614 -5.338585,82.173195l0,321.165009l87.826805,0l0,-287.495987c0,-46 1.842514,-76.83461 5.338577,-92.83461c5.669296,-23.165398 17.338593,-41.165405 35.165405,-54.503891c18,-13.165405 40.173187,-19.669304 66.503891,-19.669304c26.330688,0 50.992096,6.661423 74.173218,20.173203c23.165375,13.496101 39.496094,32 48.992096,55.165398c9.669281,23.3228 14.503876,57.165405 14.503876,101.322998l0,277.842987l87.826813,0l0,-518.504025l-78.503906,0l-0.000397,-0.00037z" id="path131"/>
  <path d="m74.6614,0l0,487.826996c0,59.51181 7.338577,105.33902 21.842499,137.33902c14.503899,32.173157 38.6614,57.338562 72.503899,75.496094c33.826797,18.173218 71.826797,27.338562 114.156998,27.338562c56.330719,0 100.661011,-14 132.834991,-42.173157c32.173218,-28.157532 48.330719,-60.818909 48.330719,-98c0,-16.48822 -2.834656,-33.653503 -8.834656,-51.165405c-5.826782,-17.653503 -16.157501,-39.496124 -31.165405,-65.653503c-14.992096,-26.346497 -24.503906,-44.503906 -28.330688,-54.677216c-3.826782,-10.330688 -5.826782,-19.322784 -5.826782,-27.165405c0,-10.503876 3.496063,-20.661377 10.661407,-30.834595c6.834656,-10.330688 26.503906,-26.157501 59.165405,-47.322784c44.173187,-29.007904 73.669281,-52.173218 88.330719,-69.842499c20.834595,-24.992111 31.338562,-54.661407 31.338562,-88.83461c0,-45.165398 -16.834595,-84 -50.173157,-116.156998c-33.322815,-32.346499 -76.000031,-48.346499 -128.157013,-48.346499c-41.007904,0 -77.007904,11.0079 -107.843018,33.007899c-30.992096,21.826801 -53.999985,50.173203 -69.322784,84.6614l75.653503,35.165405c16.173187,-30.330704 32.503876,-51.322807 48.834595,-62.992104c16.173187,-11.669304 33.338593,-17.6693 51.165405,-17.6693c24.834595,0 46,8.503941 63.51178,25.496098c17.669312,16.834602 26.330719,36.6772 26.330719,59.511803c0,18.330704 -5.165344,33.826797 -15.496094,46.818893c-6.834656,8.503952 -25.165405,22.83461 -54.677216,43.007904c-54.157501,37.165405 -87.496094,64.992096 -100.157013,83.496094c-13.007874,18.503906 -19.51178,37.669312 -19.51178,57.165405c0,12.677216 2.173218,25.51181 6.503937,38.503906c4.503937,13.165405 15.007904,34 31.842499,62.503906c16.661407,28.661377 27.653503,50.157471 32.992096,64.503906c5.165344,14.330688 7.669281,26.992065 7.669281,38.157471c0,20.173218 -8.834625,38 -26.503876,53.338623c-17.826813,15.496094 -41.496124,23.322815 -70.992126,23.322815c-34.834579,0 -63.338593,-10.818909 -85.51178,-32.33075c-22.157501,-21.496094 -33.165405,-68 -33.165405,-139.668976l0,-483.827l-88,0l-0.000221,-0.0014z" id="path135"/>
  <path d="m404.330994,64c-32.661407,-27.6693 -64,-47.1654 -94,-58.6614c-30.157501,-11.3386 -62.503891,-17.0079 -96.992111,-17.0079c-57.007889,0 -100.676994,13.8425 -131.338989,41.6693c-30.503902,27.826801 -45.826813,63.496101 -45.826813,106.660995c0,25.51181 5.653538,48.6772 17.3228,69.669312c11.511803,21.007889 26.6772,37.842499 45.3386,50.503891c18.834602,12.661407 39.826805,22.330688 63.3386,28.834595c17.165405,4.503937 43.165405,8.992126 78,13.165405c70.992111,8.503937 123.323013,18.503906 156.835007,30.330688c0.330719,12 0.48819,19.669312 0.48819,22.834625c0,35.826782 -8.330719,61.165375 -24.992096,75.669281c-22.330688,20 -55.842499,29.826782 -100,29.826782c-41.338608,0 -71.842499,-7.165344 -91.669296,-21.669281c-19.669312,-14.48819 -34.173187,-40.157501 -43.669312,-76.992096l-85.826782,11.826782c7.826771,36.677216 20.6614,66.503906 38.488197,89.007904c17.842499,22.661407 43.842506,40.157501 77.669289,52.330719c33.842499,12.173187 73.007904,18.330658 117.669006,18.330658c44.330688,0 80.173218,-5.322815 107.842987,-15.66925c27.653503,-10.48822 48,-23.496124 61.165405,-39.322815c12.992126,-15.842499 22,-35.669312 27.322815,-59.842499c2.834656,-14.992096 4.330719,-42 4.330719,-80.992126l0,-117.164993c0,-81.842484 1.842499,-133.511986 5.669281,-155.007988c3.669281,-21.6693 11.165405,-42.503899 22.173187,-62.330699l-91.842499,0c-8.992126,18.1732 -14.992096,39.496101 -17.496094,63.999999l-0.000092,0.000111zm-7.322723,196.330872c-32,-13.16539 -79.842499,-24.157486 -143.512009,-33.322784c-36.157501,-5.181107 -61.826797,-11.007904 -76.661407,-17.51181c-15.007889,-6.48819 -26.661377,-16 -34.661377,-28.661392c-8.173248,-12.503906 -12.346512,-26.330704 -12.346512,-41.669312c0,-23.496094 9.007858,-42.992096 26.6772,-58.661392c17.669312,-15.496101 43.669312,-23.3386 77.826797,-23.3386c33.842499,0 64,7.338577 90.330719,22.173203c26.346497,14.834595 45.842468,35.165398 58.173187,60.834602c9.496063,19.826797 14.173187,49.16539 14.173187,87.826797l0,32.330688l0.000214,0zm-258.835007,359.843018l0,100l91.826797,0l0,-100l-91.826797,0zm182.000015,0l0,100l91.826782,0l0,-100l-91.826782,0z" id="path139"/>
  <style type="text/css"/>
  <linearGradient gradientUnits="userSpaceOnUse" id="id1" y2="1262.64" x2="153.812" y1="1057.9399" x1="530.89001">
   <stop stop-color="#f7c5b4" id="stop146" offset="0"/>
   <stop stop-color="#ffffff" id="stop148" offset="1"/>
  </linearGradient>
  <linearGradient gradientUnits="userSpaceOnUse" id="id2" y2="1284.28" x2="2173.99" y1="1152.97" x1="1780.05"/>
  <linearGradient gradientUnits="userSpaceOnUse" id="id3" y2="493.65701" x2="1108.0601" y1="1189.77" x1="643.98602">
   <stop stop-color="#e87877" id="stop152" offset="0"/>
   <stop stop-color="#e87877" id="stop154" offset="0.219608"/>
   <stop stop-color="#f4e6e2" id="stop156" offset="1"/>
  </linearGradient>
  <linearGradient gradientUnits="userSpaceOnUse" id="id4" y2="465.67999" x2="1548.52" y1="1110.9" x1="1118.37"/>
  <linearGradient gradientUnits="userSpaceOnUse" id="id5" y2="459.207" x2="1331.04" y1="1073.1899" x1="921.71301"/>
  <linearGradient gradientUnits="userSpaceOnUse" id="id6" y2="491.86401" x2="1781.5699" y1="1187.6" x1="1317.75"/>
  <linearGradient gradientUnits="userSpaceOnUse" id="id7" y2="2231.77" x2="433.72699" y1="2367.46" x1="352.31">
   <stop stop-color="#75c5f0" id="stop162" offset="0"/>
   <stop stop-color="#ffffff" id="stop164" offset="1"/>
  </linearGradient>
  <linearGradient gradientUnits="userSpaceOnUse" id="id8" y2="2742.75" x2="1685.99" y1="2909.49" x1="1585.95"/>
  <linearGradient gradientUnits="userSpaceOnUse" id="id9" y2="2345.6699" x2="469.97699" y1="2495.8501" x1="379.87201"/>
  <linearGradient gradientUnits="userSpaceOnUse" id="id10" y2="2045.52" x2="2048.01" y1="2223.74" x1="1941.0699"/>
  <linearGradient gradientUnits="userSpaceOnUse" id="id11" y2="2502.22" x2="451.452" y1="2663.27" x1="354.82001"/>
  <linearGradient gradientUnits="userSpaceOnUse" id="id12" y2="2116.6201" x2="453.11401" y1="2295.5801" x1="345.737">
   <stop stop-color="#75c5f0" id="stop171" offset="0"/>
   <stop stop-color="#ffffff" id="stop173" offset="0.580392"/>
   <stop stop-color="#ffffff" id="stop175" offset="1"/>
  </linearGradient>
  <linearGradient gradientUnits="userSpaceOnUse" id="id13" y2="2161.3501" x2="2045.13" y1="2357.1799" x1="1927.63"/>
  <linearGradient gradientUnits="userSpaceOnUse" id="id14" y2="2826.29" x2="805.27502" y1="2938.1499" x1="738.164"/>
  <linearGradient gradientUnits="userSpaceOnUse" id="id15" y2="2800.03" x2="1034.53" y1="2953.1299" x1="942.66699"/>
  <linearGradient gradientUnits="userSpaceOnUse" id="id16" y2="2765.54" x2="1415.4399" y1="2959.02" x1="1299.35"/>
  <linearGradient gradientUnits="userSpaceOnUse" id="id17" y2="1106.61" x2="1180.63" y1="2845.5601" x1="1180.63">
   <stop stop-color="#f4dcd5" id="stop182" offset="0"/>
   <stop stop-color="#f4dcd5" id="stop184" offset="0.729412"/>
   <stop stop-color="#605d5c" id="stop186" offset="1"/>
  </linearGradient>
  <radialGradient gradientUnits="userSpaceOnUse" id="id18" fy="2207.0901" fx="1163.26" r="992.91803" cy="2207.0901" cx="1163.26">
   <stop stop-color="#838281" id="stop189" offset="0"/>
   <stop stop-color="#ffffff" id="stop191" offset="1"/>
  </radialGradient>
  <linearGradient xlink:href="#id1" id="linearGradient7777" y2="0.771006" x2="-0.162747" y1="0.214314" x1="1.179804"/>
  <linearGradient gradientTransform="matrix(1.1690965,0,0,1.1690965,-141.85305,-274.62231)" gradientUnits="userSpaceOnUse" xlink:href="#id1" id="linearGradient7833" y2="1220.0726" x2="2158.3237" y1="1220.0726" x1="1795.7166"/>
  <linearGradient gradientTransform="matrix(1.1690965,0,0,1.1690965,-141.85305,-274.62231)" gradientUnits="userSpaceOnUse" xlink:href="#id7" id="linearGradient7855" y2="2827.6108" x2="1742.5552" y1="2827.6108" x1="1524.9658"/>
  <linearGradient gradientTransform="matrix(1.1690965,0,0,1.1690965,-141.85305,-274.62231)" gradientUnits="userSpaceOnUse" xlink:href="#id7" id="linearGradient7858" y2="2861.9641" x2="1474.5833" y1="2861.9641" x1="1244.4045"/>
  <linearGradient gradientTransform="matrix(1.1690965,0,0,1.1690965,-141.85305,-274.62231)" gradientUnits="userSpaceOnUse" xlink:href="#id7" id="linearGradient7861" y2="2878.2959" x2="1083.807" y1="2878.2959" x1="896.51111"/>
  <linearGradient gradientTransform="matrix(1.1690965,0,0,1.1690965,-141.85305,-274.62231)" gradientUnits="userSpaceOnUse" xlink:href="#id7" id="linearGradient7871" y2="2882.6169" x2="852.97131" y1="2882.6169" x1="691.21912"/>
  <linearGradient gradientTransform="matrix(1.1690965,0,0,1.1690965,-141.85305,-274.62231)" gradientUnits="userSpaceOnUse" xlink:href="#id7" id="linearGradient7874" y2="2261.1477" x2="2111.3442" y1="2261.1477" x1="1865.1486"/>
  <linearGradient gradientTransform="matrix(1.1690965,0,0,1.1690965,-141.85305,-274.62231)" gradientUnits="userSpaceOnUse" xlink:href="#id7" id="linearGradient7877" y2="2583.2725" x2="507.77261" y1="2583.2725" x1="297.65381"/>
  <linearGradient gradientTransform="matrix(1.1690965,0,0,1.1690965,-141.85305,-274.62231)" gradientUnits="userSpaceOnUse" xlink:href="#id7" id="linearGradient7880" y2="2420.542" x2="524.3053" y1="2420.542" x1="320.34158"/>
  <linearGradient gradientTransform="matrix(1.1690965,0,0,1.1690965,-141.85305,-274.62231)" gradientUnits="userSpaceOnUse" xlink:href="#id7" id="linearGradient7883" y2="2231.77" x2="433.72699" y1="2367.46" x1="352.31"/>
  <linearGradient gradientTransform="matrix(1.1690965,0,0,1.1690965,-141.85305,-274.62231)" gradientUnits="userSpaceOnUse" xlink:href="#id7" id="linearGradient7886" y2="2134.6685" x2="2100.8428" y1="2134.6685" x1="1881.8184"/>
  <linearGradient gradientTransform="matrix(1.1690965,0,0,1.1690965,-141.85305,-274.62231)" gradientUnits="userSpaceOnUse" xlink:href="#id12" id="linearGradient7889" y2="2116.6201" x2="453.11401" y1="2295.5801" x1="345.737"/>
  <radialGradient gradientTransform="matrix(1.1690965,0,0,1.1690965,-141.85305,-274.62231)" gradientUnits="userSpaceOnUse" xlink:href="#id18" id="radialGradient7897" fy="2207.0901" fx="1163.26" r="992.91803" cy="2207.0901" cx="1163.26"/>
  <linearGradient gradientTransform="matrix(1.1690965,0,0,1.1690965,-141.85305,-274.62231)" gradientUnits="userSpaceOnUse" xlink:href="#linearGradient3621" id="linearGradient7909" y2="493.65701" x2="1108.0601" y1="1189.77" x1="643.98602"/>
  <linearGradient gradientTransform="matrix(1.1690965,0,0,1.1690965,-141.85305,-274.62231)" gradientUnits="userSpaceOnUse" xlink:href="#linearGradient3621" id="linearGradient7912" y2="768.77417" x2="1245.9065" y1="768.77417" x1="1001.6875"/>
  <linearGradient gradientTransform="matrix(1.1690965,0,0,1.1690965,-141.85305,-274.62231)" gradientUnits="userSpaceOnUse" xlink:href="#linearGradient3621" id="linearGradient7915" y2="792.44281" x2="1523.681" y1="792.44281" x1="1140.8575"/>
  <linearGradient gradientTransform="matrix(1.1690965,0,0,1.1690965,-141.85305,-274.62231)" gradientUnits="userSpaceOnUse" xlink:href="#linearGradient3621" id="linearGradient7918" y2="836.51538" x2="1851.5847" y1="836.51538" x1="1253.8597"/>
  <linearGradient gradientTransform="matrix(1.1690965,0,0,1.1690965,-141.85305,-274.62231)" gradientUnits="userSpaceOnUse" xlink:href="#id17" id="linearGradient7925" y2="1106.61" x2="1180.63" y1="2845.5601" x1="1180.63"/>
  <linearGradient xlink:href="#id1" id="linearGradient8319" y2="0.5" x2="1.005812" y1="0.5" x1="-0.005812"/>
  <linearGradient xlink:href="#id7" id="linearGradient8341" y2="0.499998" x2="1.002076" y1="0.499998" x1="-0.002077"/>
  <linearGradient xlink:href="#id7" id="linearGradient8344" y2="0.499998" x2="1.001962" y1="0.499998" x1="-0.001963"/>
  <linearGradient xlink:href="#id7" id="linearGradient8347" y2="0.5" x2="1.002413" y1="0.5" x1="-0.002414"/>
  <linearGradient xlink:href="#id7" id="linearGradient8357" y2="0.499997" x2="1.002797" y1="0.499997" x1="-0.002797"/>
  <linearGradient xlink:href="#id7" id="linearGradient8360" y2="0.499999" x2="1.001834" y1="0.499999" x1="-0.001834"/>
  <linearGradient xlink:href="#id7" id="linearGradient8363" y2="0.5" x2="1.002151" y1="0.5" x1="-0.002151"/>
  <linearGradient xlink:href="#id7" id="linearGradient8366" y2="0.500001" x2="1.002216" y1="0.500001" x1="-0.002216"/>
  <linearGradient xlink:href="#id7" id="linearGradient8369" y2="-0.779903" x2="0.745237" y1="1.702154" x1="0.29105"/>
  <linearGradient xlink:href="#id7" id="linearGradient8372" y2="0.5" x2="1.002063" y1="0.5" x1="-0.002063"/>
  <linearGradient xlink:href="#id12" id="linearGradient8375" y2="-0.347636" x2="0.742217" y1="1.34476" x1="0.253597"/>
  <radialGradient gradientTransform="matrix(1.1690965,0,0,1.1690965,-141.85305,-274.62231)" gradientUnits="userSpaceOnUse" xlink:href="#id18" id="radialGradient8383" fy="2207.0901" fx="1163.26" r="992.91803" cy="2207.0901" cx="1163.26"/>
  <linearGradient xlink:href="#linearGradient3621" id="linearGradient8395" y2="-0.053015" x2="0.93544" y1="1.035054" x1="0.044714"/>
  <linearGradient xlink:href="#linearGradient3621" id="linearGradient8398" y2="0.5" x2="1.008678" y1="0.5" x1="-0.008678"/>
  <linearGradient xlink:href="#linearGradient3621" id="linearGradient8401" y2="0.5" x2="1.005501" y1="0.5" x1="-0.005502"/>
  <linearGradient xlink:href="#linearGradient3621" id="linearGradient8404" y2="0.5" x2="1.00351" y1="0.5" x1="-0.00351"/>
  <linearGradient xlink:href="#id17" id="linearGradient8411" y2="-0.005713" x2="0.505497" y1="0.999998" x1="0.505497"/>
  <linearGradient xlink:href="#linearGradient9382" id="linearGradient9388" y2="0.5" x2="1.005344" y1="0.5" x1="-0.005325"/>
  <pattern xlink:href="#id0" id="pattern7900" patternTransform="matrix(1.1690965,0,0,1.1690965,898.20793,1039.033)"/>
  <pattern id="id0" patternUnits="userSpaceOnUse" patternTransform="translate(889.628,1123.65)" x="0" y="0" width="391.228" height="1694.76">
   <image id="_166155144" x="0" y="0" width="391.228" height="1694.76"/>
  </pattern>
 </defs>
 <g>
  <title>background</title>
  <rect fill="none" id="canvas_background" height="402" width="582" y="-1" x="-1"/>
 </g>
 <g>
  <title>Layer 1</title>
  <path fill="url(#linearGradient8411)" stroke="#1f1a17" stroke-width="4.870924" id="_165586544" d="m1741.105469,2958.362061l-970.123291,93.75293c-14.152954,-38.525635 -63.516663,-104.288574 -14.917908,-132.148926c47.457031,-27.204102 17.977417,-58.928711 -9.49469,-88.104492c-63.610535,-67.556641 67.719299,-70.581543 9.213013,-152.0271c-53.846558,-74.960693 -38.264587,-82.12207 20.893433,-144.523682c65.181702,-68.756104 -63.30542,-90.043213 26.305481,-149.5625c67.726196,-44.984131 62.107056,-73.777588 11.527039,-130.302734c-55.618042,-62.155518 36.914307,-37.035889 48.386169,-80.887939c12.199463,-46.634277 -138.352051,-118.156006 -90.045776,-187.910156c13.40741,-19.36084 50.49585,-18.395752 70.828552,-18.895508c48.011963,-56.890991 -173.716064,-147.347168 -41.759094,-186.908203c156.0849,-46.794189 -74.920837,-149.981079 -1.463501,-190.31958c53.808044,-29.547241 141.710876,10.927856 126.345459,-93.595337c-18.439941,-125.441772 -10.260986,-128.217285 114.704041,-146.532227c136.017456,-19.935181 73.712646,-172.801758 73.157837,-263.833496c28.489624,-54.14917 148.143188,-67.450134 252.169312,-46.424316c-20.29541,93.030762 -75.613892,232.048096 49.4729,281.864502c29.765381,11.888794 72.866333,-6.727905 46.566406,42.171875c-57.869751,107.545532 139.018433,7.771729 119.493408,74.775879c-10.225098,35.047729 -54.072998,56.080566 -59.85376,93.145508c-13.044312,83.484863 111.836548,-12.703369 132.264648,-4.564453c37.715088,14.973145 -55.435791,108.387817 -63.602295,125.25354c-51.789429,107.030518 125.024292,32.574951 142.851807,65.550415c28.855591,53.475098 -178.434448,111.028809 -58.85144,167.018188c121.414185,56.744629 -182.577759,120.875244 -28.674561,162.470581c29.80249,8.072632 6.130005,31.868042 -5.86084,44.748169c-104.71106,112.401123 166.231323,334.098389 81.422241,396.6521c-85.793457,63.382813 78.873535,92.979736 -5.032471,156.473145c-47.857544,36.109375 -43.897705,66.193848 -2.511353,107.019531c76.331909,75.395508 -31.128174,62.435547 17.064819,145.713623c11.971558,20.669678 8.760132,37.080078 9.523804,59.931396l0.00061,-0.000732z"/>
  <path fill="#948ca1" stroke="#1f1a17" stroke-width="4.870924" id="_166160416" d="m1136.600708,1142.217407c25.239746,87.796753 56.128784,170.084839 -3.491577,255.790161c-47.716553,68.60437 -227.310974,98.750732 -141.597534,195.651855c69.151245,78.206665 -124.135803,62.189819 -77.851868,132.508911c42.595703,64.552124 67.09668,78.239868 -15.246521,118.401367c-80.660217,39.24353 141.758789,108.3573 16.008545,174.879272c-114.99408,60.949951 142.663696,121.25293 21.604309,200.71875c-63.080322,41.542236 38.112793,85.318359 62.700745,118.277588c48.50769,65.055908 -64.680603,33.25 -53.86731,73.211426c16.712708,61.782471 128.295532,110.015625 43.722351,173.682129c-91.728821,69.058838 115.525696,109.046387 8.913452,174.286621c-72.45636,44.338135 101.089661,196.632813 38.310242,253.322266c-8.568237,7.737061 0.494385,11.689941 -18.703613,6.894775c4.100464,-10.757813 21.288208,-31.881836 21.767212,-41.376465c3.266602,-64.614258 -127.571777,-186.338867 -43.392395,-233.629883c76.770935,-43.056885 -115.750732,-94.861572 -15.200928,-170.525635c85.925964,-64.693115 -102.54895,-148.303467 -39.628723,-190.818848c14.997986,-10.128418 66.290283,-2.516846 50.73877,-31.043701c-25.586182,-46.830322 -147.897705,-88.346436 -59.928345,-145.781738c99.620605,-64.843506 -162.355957,-124.300781 -16.443481,-203.163208c100.973633,-54.652954 -147.066467,-120.99231 -1.874878,-180.090088c95.894165,-39.116333 -108.846069,-117.349121 31.489807,-167.239136c113.947693,-40.482056 -48.194214,-80.520752 26.041748,-155.778687c36.584412,-37.108887 93.242004,-49.403687 131.537415,-87.179688c92.976929,-91.718994 40.578613,-205.082886 15.155396,-306.46106c-1.097778,-9.101318 -6.168823,-16.741699 -4.739868,-19.359375c1.901123,-1.012085 13.350952,17.814331 14.556274,21.491089c3.309326,10.085571 7.966309,27.944336 9.421509,33.331665l-0.000732,-0.000366z"/>
  <path fill="#948ca1" stroke="#1f1a17" stroke-width="4.870924" id="_166160320" d="m1079.19812,3012.689941c16.564941,-28.81665 37.120117,-32.85791 6.520752,-62.122314c-84.753784,-81.052246 40.577271,-94.103516 -4.217896,-169.576172c-25.374878,-42.753174 -35.800171,-69.235352 8.746582,-103.099854c90.932129,-69.126221 -95.315857,-122.121582 21.081055,-193.022461c88.808838,-54.096436 -109.787842,-106.333252 -58.643066,-161.60083c37.539795,-26.323242 99.652344,33.218506 82.609619,-42.863525c-13.748413,-61.376465 -78.518677,-57.010986 -115.22467,-93.450439c-84.066162,-83.45874 192.461365,-72.334961 58.251038,-148.383911c-41.92334,-23.755493 -153.522339,-78.402832 -49.637085,-113.848267c39.137207,-13.353516 60.760864,-28.421997 17.776001,-58.939819c-155.017639,-110.056885 160.723755,-119.169556 37.764771,-178.464966c-101.186279,-48.796143 36.127319,-123.377075 75.956299,-156.074341c131.449707,-107.908691 46.715576,-317.996582 28.783813,-459.617432c-2.348511,-18.54895 -11.949585,-32.605469 10.258057,-32.605469c13.175537,124.822144 63.839844,266.163696 40.9375,390.989258c-14.944092,81.447144 -79.294556,115.876343 -139.337646,161.79126c-118.118347,90.323364 101.523315,92.485474 9.209106,155.353027c-38.913574,26.500122 -147.617188,43.611816 -66.617676,99.722656c139.515381,96.645508 -145.207581,83.772217 2.904907,159.730225c14.752197,7.565918 29.899292,14.478882 44.115967,23.043091c149.75647,90.214355 -171.807007,98.481445 -34.463745,163.81958c53.048462,25.235352 107.980347,55.125244 95.332275,125.71167c-13.788452,32.81958 -87.528809,-3.095215 -91.466431,18.191406c-11.561523,62.489502 170.69397,90.047363 46.116333,166.803223c-78.575439,48.411133 88.249634,112.002197 -4.638916,182.650391c-76.574829,58.239746 46.943481,99.748779 -13.588257,171.306396c-43.396484,51.300781 -9.754272,55.212158 21.441406,97.482178c20.691772,28.038086 -5.830444,42.780518 -18.452271,64.754883l-11.517334,-7.679199l-0.000488,-0.000244z"/>
  <path fill="#948ca1" stroke="#1f1a17" stroke-width="4.870924" id="_166708424" d="m1189.864746,1012.868591c0.607422,1.53949 32.494995,66.577576 33.149414,68.219055c27.235962,68.365601 93.030762,221.589478 110.810791,288.321411c21.017456,78.884766 -69.311401,90.019653 19.025269,147.720093c117.319946,76.63147 -40.375732,95.579468 -4.993774,151.758057c24.190308,38.409546 173.963867,96.142822 67.853271,142.208862c-106.990479,46.449219 101.970337,81.387817 11.346191,157.437622c-46.786011,39.262817 -24.375366,48.888672 4.019043,91.121338c31.928711,47.48999 -12.905029,71.394775 -45.641479,97.486084c-92.60144,73.80957 162.219116,106.07251 25.981079,177.903809c-92.704956,48.87915 77.745605,140.45166 23.582764,221.305176c-36.504272,54.49292 18.481323,71.706787 4.494019,124.230713c-4.453979,16.726563 -14.615601,31.296387 -18.96875,48.121094c-21.332397,82.439697 94.44043,168.129883 35.151245,245.525391c-9.157715,11.953613 -6.003052,20.838135 -24.137817,16.306885c9.155029,-22.809814 29.429932,-37.909912 28.062988,-63.906006c-4.295166,-81.633545 -82.184448,-141.907227 -42.251953,-227.881592c27.680542,-59.595703 -35.518677,-89.537598 4.723267,-147.948975c55.651123,-80.776123 -132.928711,-167.538574 -13.674072,-229.752197c106.37207,-55.492188 -146.007202,-89.898193 -24.415283,-180.175293c72.544678,-53.863037 33.651733,-55.006348 4.660889,-115.814087c-31.77832,-66.652222 104.474976,-69.90918 18.818359,-135.107788c-121.354614,-92.369507 96.232544,-81.901489 6.701538,-151.536011c-46.005981,-35.782227 -126.756958,-70.577271 -56.300049,-130.596191c90.787354,-77.338379 -114.963745,-81.325684 -47.030396,-171.746216c20.012451,-26.636841 14.549316,-49.56665 4.629272,-79.884277c-20.353516,-62.211914 -83.808105,-215.603516 -107.856201,-276.494751l-17.73999,-66.823425l0.000366,0.001221z"/>
  <path fill="#948ca1" stroke="#1f1a17" stroke-width="4.870924" id="_166160176" d="m1504.234741,2975.26709c4.724609,-64.554688 4.256714,-86.9021 -28.149902,-147.627441c-46.635498,-87.392334 -23.335693,-121.756836 17.710938,-202.895752c30.016724,-59.333252 1.597534,-81.868164 -24.75769,-132.816406c-28.551758,-55.191406 11.420654,-81.065918 49.182861,-113.439453c100.636719,-86.277832 -171.179199,-140.955566 -3.589722,-215.285645c94.10083,-41.734131 -50.336914,-52.561279 -58.612671,-88.52832c-16.258423,-70.6698 131.992188,-56.387085 50.310791,-143.556885c-86.446411,-92.252075 132.338257,-115.353027 46.297241,-167.602783c-31.248047,-18.977051 -122.406738,-48.546265 -51.077026,-87.872681c69.285034,-38.198364 -114.648804,-63.605103 -81.180542,-135.036499c11.965942,-25.537964 74.171021,-84.276123 0.397583,-72.147095c-44.746826,7.357422 -86.776367,-9.295898 -37.190552,-49.075073c57.422607,-46.064087 -60.393555,-147.713013 -84.269165,-191.616211c-43.504028,-80.000122 8.386108,-137.924194 29.015747,-213.458252l13.401978,3.349426c-28.482666,104.343933 -78.453857,143.740417 -1.787964,246.661926c30.20166,40.542603 112.641602,115.406738 54.864136,163.723633c-62.831909,52.543335 49.601196,12.355469 69.227051,33.45166c24.494019,26.331787 -17.937378,60.236328 -29.679688,82.053345c-35.341797,65.669067 177.4021,84.970459 68.840454,146.975342c-64.21106,36.672729 185.042358,71.218018 34.938721,153.794678c-108.909668,59.915894 39.174438,80.782959 5.240845,147.652222c-15.043579,29.646606 -124.594116,73.501587 -44.946899,99.995972c68.985474,22.946289 84.414185,55.982666 9.366333,89.293457c-119.817139,53.179688 123.726563,113.877197 23.118896,204.471436c-55.348755,49.841309 -75.036743,60.64502 -31.023193,130.122803c67.127075,105.966064 -71.884766,164.219482 -28.109985,271.191895c7.499634,18.32666 17.3396,35.583252 26.721069,52.983643c12.366455,22.932373 47.71521,148.147949 5.252075,148.147949l0.48877,-12.911865l-0.000488,0.000977z"/>
  <path fill="url(#linearGradient8404)" stroke="#1f1a17" stroke-width="4.870924" id="_166731168" d="m1500.271606,726.250549c57.782837,-36.476746 84.389282,-24.379517 134.35022,-58.097656c40.045654,-27.107605 63.84668,-72.387329 101.670776,-101.670837c37.824341,-29.283508 96.668823,-41.912354 123.457764,-72.62204c26.788696,-30.709717 3.261108,-65.658112 25.417725,-98.039734c26.362061,-39.755707 69.366455,-39.489288 103.525146,-28.722961c19.074951,17.191803 35.753174,32.019928 30.825684,58.221954c-7.130981,48.23703 -43.219727,50.439148 -50.835571,72.171936c-13.675171,47.624084 -34.143311,141.975098 -87.146362,188.817261c-62.918945,45.190063 -88.877808,64.345093 -156.137451,137.981445c-72.768555,65.373657 -272.491943,172.822876 -341.323608,203.342163c-68.832275,30.519165 -65.580688,24.404297 -43.573364,-32.679871c22.00769,-57.08429 108.596191,-211.842651 159.768799,-268.70166l0.000244,0z"/>
  <path fill="url(#linearGradient8401)" stroke="#1f1a17" stroke-width="4.870924" id="_166160944" d="m1328.390991,1041.932251c53.255859,-87.146362 135.547363,-193.56842 171.886353,-290.265564c36.338745,-96.697693 50.494507,-264.437897 54.466675,-308.643799c5.960327,-20.730408 73.054199,-45.827881 81.996704,-84.160095c3.052612,-41.518829 -17.386475,-79.31955 -49.316772,-93.763885c-31.930298,-14.44429 -74.353394,7.144867 -98.039673,25.417694c-23.686401,18.272858 -25.751831,42.216064 -29.048828,72.62204c-30.981689,51.028748 -104.092407,154.927521 -156.137451,232.390656l-109.843018,447.738281c45.547607,-11.452515 95.001099,-9.436768 134.035767,-1.335205l0.000244,-0.000122z"/>
  <path fill="url(#linearGradient8398)" stroke="#1f1a17" stroke-width="4.870924" id="_166154856" d="m1064.537598,755.299072c-6.883789,-97.011108 58.626465,-314.711395 34.589355,-362.519257c-11.876343,-27.216675 -64.639038,-47.701355 -67.269165,-91.36853c-3.026367,-40.100922 27.702637,-87.562042 65.359863,-94.40863c37.657104,-6.846619 85.183105,30.247208 94.804932,65.359863c7.244263,25.206421 -2.343018,31.137726 -0.39624,61.72876c3.135498,23.854828 112.564209,141.612671 119.826538,294.118988c9.682495,131.930176 -66.121948,303.763977 -118.166382,413.90802l-41.601685,-79.846924c-29.048828,-68.990906 -80.262573,-109.96167 -87.146484,-206.973328l-0.000732,0.001038z"/>
  <path fill="url(#linearGradient8395)" stroke="#1f1a17" stroke-width="4.870924" id="_166708280" d="m823.488647,831.80127c-33.94458,-87.759521 -62.990723,-205.233704 -101.835205,-263.281738c-38.844543,-58.047943 -53.722351,-52.305786 -119.222107,-67.062164c-30.726318,-27.175262 -21.873596,-115.3862 14.90271,-144.05957c36.776245,-28.673248 66.801208,-15.838806 131.640259,29.80542c75.438477,103.932343 163.762329,153.413544 245.894897,235.95993c75.729797,111.911133 130.967957,279.453796 198.030945,421.030212c-25.5448,6.25293 -53.143921,11.421997 -81.292603,45.921753c-96.040527,-86.10553 -192.0802,-172.209045 -288.119141,-258.313049l0.000244,-0.000793z"/>
  <path fill="#e87877" stroke="#e87877" stroke-width="1.052054" id="_166707800" d="m649.624084,508.908508c34.467896,3.245911 53.273621,-7.289825 67.062195,-24.837799c-6.693359,17.822754 -13.62146,32.81662 -14.433289,54.87796c-14.093689,-16.76239 -31.480164,-23.871399 -52.628906,-30.040161z"/>
  <path fill="#f7c5b4" id="_165923464" d="m757.034851,3042.314941c0.015198,-0.005615 -18.508911,-37.267822 -20.66272,-41.718994c-38.763062,-80.128662 4.408386,-57.629639 30.225098,-106.670166c20.542664,-39.022705 -99.530884,-74.818848 -38.056152,-130.983398c87.388062,-79.841309 -91.060608,-116.920166 19.316589,-219.086182c84.969238,-78.647217 -55.374939,-100.852295 54.933167,-174.555664c115.303406,-77.040039 -106.991882,-131.567627 29.32489,-182.346191c63.591248,-23.687744 -167.055664,-171.168701 -51.520203,-223.438965c37.434814,-16.936279 84.694397,5.656616 34.902832,-48.912231c-33.799622,-37.042725 -119.575195,-112.054688 -30.930664,-142.762939c31.694092,-10.980347 57.791077,-17.868408 61.22345,-33.154907c14.143372,-62.98645 -162.216797,-157.508789 2.167603,-171.001343c157.832764,-12.956055 -49.592834,-209.004028 150.92572,-226.880737c164.362122,-14.654175 106.289124,-119.727173 102.056091,-240.380371c0.872559,-0.039917 -20.393555,-25.152588 -23.448975,-28.970093c-17.988525,-22.471313 -35.181641,-45.551636 -53.591187,-67.693054c-132.134766,-158.924683 -352.770142,-225.532776 -550.695862,-260.231506c-23.276367,-4.079834 -152.772858,-54.770325 -165.39325,-14.779846c-4.839172,15.334778 145.405212,72.390076 188.207001,97.985901c113.919891,68.126648 330.068695,212.912354 287.837372,360.953979c-7.898682,27.692871 -31.891541,92.551514 -40.864319,119.908325c-67.857422,206.869263 83.669983,651.376099 -167.011292,753.10144c-156.914978,63.674072 -394.642563,12.755859 -496.314209,-116.900757l0.247139,217.124634c205.897758,-14.420654 630.977776,-21.710693 625.104179,276.438721c-3.570313,181.315186 -28.403992,368.347412 -6.120361,550.368652c4.661072,38.076904 23.352234,52.724121 58.137634,54.585205l0.000427,0.000488z"/>
  <path fill="#dd8281" stroke="#1f1a17" stroke-width="4.870924" id="_166707824" d="m359.858856,2064.44751c158.219696,27.423828 311.255585,-12.308594 339.4133,-192.675293c22.617798,-144.883789 33.190735,-293.367188 17.455505,-439.345337c-9.531982,-88.434448 34.190369,-173.966187 56.32489,-257.470093c33.968079,-128.143433 -128.736267,-215.978882 -212.66803,-285.231445c-20.284546,-16.73761 -113.316681,-90.738953 -138.521576,-77.397705c-49.743286,26.328979 -104.670959,25.07666 -133.87207,-29.471313c-59.689499,-111.503845 99.496307,-171.748413 161.082794,-95.582153c11.144592,13.784363 19.108185,30.680725 31.186127,43.563599c124.656097,24.095032 253.378265,62.221619 368.516754,115.938477c116.993835,54.581116 183.784363,149.224609 264.751282,242.540771c-7.129639,6.112061 -2.470093,2.135742 -12.496216,10.942993c-5.260376,-5.206421 -10.209961,-12.695068 -15.133301,-18.525513c-61.953796,-73.375916 -113.958618,-148.697449 -199.969299,-197.437012c-120.622681,-68.351685 -276.437561,-116.862183 -412.724945,-140.761536c-23.274963,-4.081238 -152.772858,-54.770325 -165.39325,-14.779846c-3.84787,12.192505 77.542664,49.820679 118.914642,65.029785c59.754395,21.966187 119.018677,55.482788 166.803162,97.089844c75.838928,66.037659 222.180969,149.737915 197.055908,270.196899c-18.580811,89.083496 -70.22937,176.423706 -60.128601,269.870728c15.906494,147.165894 5.285095,296.902588 -17.543945,442.962402c-41.759094,267.159668 -356.549896,242.785156 -540.472153,148.599243c-46.991714,-24.064697 -60.261078,-37.237549 -92.774002,-78.70105l-1.567032,-22.282227c73.009964,93.106812 169.313232,122.406738 281.759262,142.924316l0.000793,0.001465z"/>
  <path fill="#f7c5b4" id="_166160560" d="m2394.104248,1955.803345c-126.131348,14.727295 -255.636963,18.849976 -378.085693,-19.630005c-265.215454,-83.344238 -182.650391,-363.750366 -190.295044,-575.484253c-4.412476,-122.216187 -32.036499,-386.146729 113.733643,-441.117676c112.610962,-42.467285 168.192017,-19.453308 236.960571,-7.322998c137.277588,27.951233 95.823975,-8.304565 71.78125,-18.925842c-42.02417,-14.147461 -91.615723,-54.411316 -137.19458,-62.24646c-92.002197,-15.818115 -196.808105,-39.260132 -288.341431,-17.342285c-63.444824,15.191284 -131.206421,17.017883 -187.553345,50.544128c-87.922363,52.31543 -173.024048,110.007202 -254.1604,172.883667c-21.72168,97.25415 -68.730103,182.787109 21.116943,257.956421c13.668457,11.43457 21.451294,16.663086 39.619019,17.637817c101.641968,5.423218 -26.756958,104.364502 60.518066,92.44397c28.133423,-3.860229 82.996094,-21.822388 93.998535,18.072754c5.518555,20.031738 -105.06311,154.38855 -30.854736,126.54187c25.729736,-9.645264 90.297119,-63.217041 108.966309,-20.281738c23.03479,52.9823 -173.219116,194.771362 -6.182495,169.031372c20.142212,-3.088501 48.463501,-9.599487 67.064941,1.665161c94.098022,57.034546 -168.38147,117.772461 -43.584351,177.533203c110.097046,52.666138 -92.597168,113.057007 -75.932739,146.597656c9.479492,19.081909 97.222412,5.075195 47.351929,64.267822c-12.11377,14.383789 -26.798218,26.219971 -33.207275,44.594971c-33.679565,96.257324 193.090332,302.756104 97.976196,368.860596c-65.968628,45.994629 90.756958,84.202637 -2.440918,154.618652c-97.555176,73.918457 100.892212,105.966064 11.485596,180.54834c-21.764526,18.216309 23.638062,81.88623 20.508179,109.439697c36.106689,-3.00293 69.642578,-18.460449 74.621216,-55.95459c20.04834,-150.955078 -1.061768,-316.689697 4.29248,-470.355713c2.993164,-85.918945 -10.479126,-315.621094 105.381958,-339.097656c143.551147,-29.087402 316.66394,-35.485352 452.457886,22.035156c2.099854,0.88916 0,-113.298706 0,-147.510742l-0.001709,-0.003296z"/>
  <path fill="#dd8281" stroke="#1f1a17" stroke-width="4.870924" id="_166155552" d="m1355.210083,1039.874756c86.120728,-65.553162 194.362305,-141.977478 287.971802,-196.36615c47.484619,-27.589539 100.363525,-22.239502 152.034058,-36.421448c101.172485,-27.770386 212.068237,-20.147766 314.803833,-3.534485c54.764648,8.856873 96.725342,55.194092 152.412842,49.215942c109.265625,-11.728638 147.631104,122.472229 41.38208,158.349487c-65.140381,21.996399 -98.839111,-19.826111 -145.899902,-55.791992c-25.673096,-19.620361 -53.874023,-34.012268 -86.184082,-38.533875c-305.517578,-42.753174 -225.044067,379.847656 -230.918701,557.875366c-2.812378,85.230103 -15.557251,174.382446 0.846313,258.830933c47.230469,243.141724 363.245239,230.881348 552.616577,208.800537l0,13.906006c-126.131348,14.727295 -255.802979,18.44397 -378.25293,-20.034546c-265.214233,-83.344238 -182.650269,-363.750366 -190.294922,-575.484253c-4.412598,-122.216187 -32.036499,-386.146729 113.733521,-441.117676c112.611206,-42.467346 168.192017,-19.453308 236.960571,-7.322998c137.277832,27.951233 95.823975,-8.304565 71.78125,-18.925903c-42.023926,-14.147461 -91.615479,-54.411255 -137.19458,-62.24646c-92.002075,-15.818115 -196.807983,-39.260132 -288.341309,-17.342224c-63.444824,15.191223 -131.206543,17.017822 -187.553345,50.544128c-87.922485,52.31543 -173.024048,110.007202 -254.414185,171.97644l-25.486816,3.624268l-0.002075,-0.001099z"/>
  <path fill="#948ca1" stroke="#1f1a17" stroke-width="4.870924" id="_166160152" d="m1741.105469,2958.362061c-0.76355,-22.851074 2.447876,-39.261475 -9.523682,-59.931152c-48.192871,-83.277832 59.266968,-70.317627 -17.064941,-145.713867c-41.386108,-40.825684 -45.345825,-70.910156 2.511475,-107.019531c83.906006,-63.49292 -80.760986,-93.090088 5.032471,-156.4729c84.80896,-62.552979 -186.133057,-284.250488 -81.422241,-396.652344c11.990845,-12.879883 35.663452,-36.675293 5.860718,-44.748047c-153.90332,-41.594849 150.088623,-105.72583 28.674683,-162.470459c-119.583496,-55.989502 87.706909,-113.543091 58.85144,-167.018311c-17.827026,-32.975464 -194.640503,41.480103 -142.851929,-65.550415c8.166626,-16.866089 101.317383,-110.28064 63.602295,-125.25354c-20.428101,-8.138916 -145.309326,88.049561 -132.264526,4.564453c5.780762,-37.064819 49.628662,-58.097778 59.85376,-93.145508c19.525024,-67.00415 -177.363647,32.769653 -119.493408,-74.775879c26.300049,-48.89978 -16.794189,-30.309204 -46.566528,-42.171875c-125.075806,-49.838623 -69.174561,-190.912231 -48.879028,-283.941895c5.626099,0.338257 3.99292,0.693115 17.774414,-3.907349c-20.260986,101.720581 -77.040039,182.406006 16.865967,260.970459c13.666992,11.43457 21.451172,16.662964 39.619141,17.637817c101.641724,5.423218 -26.75708,104.364624 60.517822,92.44397c28.133545,-3.860229 82.996338,-21.82251 93.998657,18.072754c5.518433,20.031738 -105.062988,154.388428 -30.854614,126.541748c25.729736,-9.645142 90.296997,-63.217041 108.966187,-20.281738c23.034668,52.9823 -173.219238,194.771606 -6.182617,169.031494c20.142334,-3.088501 48.463501,-9.599487 67.065063,1.665161c94.098145,57.034546 -168.38147,117.772461 -43.584106,177.533203c110.096924,52.666138 -92.59729,113.057007 -75.932983,146.597656c9.479614,19.081909 97.222412,5.075073 47.352051,64.267822c-12.11377,14.383545 -26.798462,26.219971 -33.207397,44.594971c-33.679443,96.257324 193.090332,302.756348 97.976318,368.860352c-65.968872,45.994873 90.756714,84.202881 -2.44104,154.618896c-97.555054,73.918457 100.892212,105.966064 11.485718,180.54834c-27.860107,23.317871 54.333984,121.106689 4.26062,121.106689l0.000244,-0.000977z"/>
  <path fill="url(#linearGradient9388)" stroke="#1f1a17" stroke-width="4.870924" id="path211" d="m1240.287842,1174.110352l-33.802368,-102.401245c13.175537,124.822144 56.577515,233.484863 33.675293,358.309448c-14.942627,81.447021 -79.294556,115.876343 -139.337524,161.791138c-118.11853,90.323364 101.523193,92.485474 9.208984,155.353149c-38.913574,26.5 -147.617249,43.611816 -66.617676,99.722778c139.515381,96.645264 -145.207581,83.772095 2.904907,159.730103c14.752197,7.565918 29.899292,14.47876 44.115845,23.042969c149.756592,90.214355 -171.806885,98.481445 -34.463623,163.819824c53.048462,25.235352 107.980469,55.125 95.332275,125.71167c-13.788574,32.819336 -87.528809,-3.095459 -91.466431,18.191406c-11.561523,62.489502 170.693848,90.047119 46.116333,166.803223c-78.575317,48.410889 88.249634,112.002197 -4.638916,182.650146c-76.574951,58.239746 46.943481,99.749023 -13.588257,171.306641c-43.396606,51.300537 -9.754395,55.211914 21.441406,97.481934c20.69165,28.038086 -5.830444,42.780762 -18.452271,64.755127l340.824341,-29.833008c9.155029,-22.809814 29.429932,-37.909912 28.062988,-63.906006c-4.295288,-81.633545 -82.184448,-141.907227 -42.251953,-227.881592c27.680664,-59.595459 -35.518555,-89.537598 4.723145,-147.948975c55.651001,-80.776367 -132.928589,-167.538574 -13.67395,-229.752197c106.37207,-55.492188 -146.007324,-89.898193 -24.415527,-180.175293c72.5448,-53.863281 33.651978,-55.006348 4.661133,-115.814209c-31.778442,-66.6521 104.474854,-69.908936 18.818359,-135.107788c-121.354614,-92.369507 96.232422,-81.901367 6.70166,-151.535889c-46.005859,-35.782227 -126.756958,-70.577271 -56.300171,-130.596313c90.787354,-77.338257 -114.963623,-81.325562 -47.030396,-171.746094c20.012573,-26.636841 14.549316,-49.565308 4.629395,-79.884277c-20.35498,-62.211914 -51.128174,-121.194336 -75.176392,-182.08667l-0.00061,0z"/>
  <path fill="url(#radialGradient8383)" id="_167105680" d="m2396.500977,2119.102783c-6.274902,-2.126221 5.645508,2.293213 -0.527344,-0.111816c-138.155762,-53.859131 -310.598633,-59.073975 -455.82373,-23.219971c-109.100098,26.935303 -88.45813,303.061523 -92.52002,385.609131c-6.765137,137.454102 19.235229,285.212646 -3.327393,420.333252c-11.99353,71.828125 -181.519653,86.278076 -195.39917,11.277344c-5.551636,-29.994629 -8.890137,-138.514404 -13.120361,-244.676758c-4.408447,-110.646484 -10.091187,-218.697021 -35.35144,-230.473145c-28.40686,-13.241943 -23.054077,69.99585 -22.878784,80.215576c2.289063,132.51001 -12.504517,274.530518 13.175415,404.008057c13.642212,68.786621 -96.609497,68.326904 -141.970337,71.706543c-143.470459,10.691895 -103.289063,-198.393311 -102.990723,-292.622314c0.133789,-42.316895 18.906616,-240.684326 -24.926147,-265.885498c-28.421997,-16.341309 -65.608398,-20.880859 -97.016724,-11.328125c-82.913452,25.218994 -59.986328,324.366943 -58.226074,380.96875c2.443848,78.552002 30.649048,224.190674 -82.626221,225.244141c-47.867065,0.444336 -126.933472,11.23291 -149.559021,-43.705811c-27.078613,-65.757324 23.765076,-470.664307 -28.950806,-497.886719c-31.115601,-16.067871 -16.323364,143.063477 -16.063843,158.349609c1.84314,108.590576 8.209351,220.099854 -1.685791,328.366455c-7.782654,85.158203 -53.362,79.551514 -122.192749,80.015381c-55.377808,6.404785 -77.294128,-32.231201 -81.048096,-84.029053c-11.397278,-157.260986 -11.699646,-326.340332 4.264832,-482.788818c1.742371,-17.075684 3.13678,-34.209473 3.475098,-51.376709c5.673035,-286.855225 -414.455261,-275.651855 -610.697472,-261.88208l0,1250.103027l2317.885826,0l-1.899902,-1306.208252l0.000977,-0.002197z"/>
  <path fill="#e87877" stroke="#e87877" stroke-width="1.052054" id="_167105896" d="m1070.663696,359.100494c34.973145,9.019745 56.867432,7.273224 81.959351,-3.491669c-22.475464,16.291595 -34.7771,34.3284 -45.918945,59.349884c-5.815308,-34.622437 -15.69519,-41.021851 -36.040405,-55.858276l0,0.000061z"/>
  <path fill="#e87877" stroke="#e87877" stroke-width="1.052054" id="_166124432" d="m1462.217529,364.617432c18.925903,41.315887 28.187256,49.047455 47.114624,56.295868c-31.409912,-9.021149 -55.32959,-10.309296 -85.531128,3.382568c12.966919,-19.973755 25.450928,-39.705994 38.416504,-59.678497l0,0.000061z"/>
  <path fill="#e87877" stroke="#e87877" stroke-width="1.052054" id="_166155432" d="m1874.744873,460.06015c-2.031006,32.186981 30.798096,39.30011 56.861938,43.705719c-31.702393,-2.032288 -62.728271,2.371979 -94.092529,10.164307c16.471191,-10.84082 36.667236,-22.021301 37.230591,-53.870056l0,0.000031z"/>
  <path fill="#948ca1" stroke="#1f1a17" stroke-width="4.870924" id="_167105296" d="m749.293091,3027.642578c-15.862305,-35.591553 -53.26532,-87.767578 -6.934998,-115.703613c80.792786,-48.71875 -89.254639,-86.221436 -4.452576,-157.016602c67.330017,-56.207764 -63.003052,-99.928467 -25.974182,-169.794922c31.790771,-59.980957 99.69928,-59.432861 49.489258,-131.111816c-30.110535,-42.985107 18.343262,-68.553223 48.659546,-89.671631c100.96814,-70.335693 -112.392944,-132.601318 19.203491,-176.397949c6.290222,-2.093262 13.215576,-4.93042 17.240173,-10.483398c19.741821,-27.233154 -220.851685,-218.02478 -9.451904,-223.369873c21.671997,-43.08313 -190.466858,-141.093628 -39.120667,-186.483765c119.029236,-35.697998 -36.937805,-97.834106 -24.434692,-161.58667c15.686951,-79.990479 162.325562,10.805054 137.705566,-118.238892c-20.360413,-106.717163 -4.07428,-138.30188 108.260681,-148.761719c147.195068,-13.704224 82.292114,-139.475586 81.667969,-239.111816l13.515137,-13.357666c0.555054,91.031494 62.859497,243.898071 -73.157715,263.833496c-124.964722,18.315674 -133.143738,21.090698 -114.704163,146.532104c15.365234,104.523315 -72.537842,64.04834 -126.345398,93.595459c-73.457397,40.338379 157.548584,143.525269 1.463501,190.31958c-131.957092,39.561035 89.771057,130.016357 41.759033,186.908081c-20.332764,0.499878 -57.421082,-0.46521 -70.828552,18.895508c-48.306091,69.754639 102.245239,141.276123 90.045837,187.910156c-11.471802,43.852051 -104.004089,18.732666 -48.38623,80.887939c50.580017,56.525146 56.19928,85.318604 -11.526978,130.302734c-89.610901,59.519775 38.876282,80.806641 -26.305542,149.562744c-59.157898,62.401123 -74.73999,69.5625 -20.893372,144.523682c58.506287,81.445801 -72.823608,84.470703 -9.213074,152.026855c27.472168,29.176025 56.951721,60.900391 9.49469,88.104736c-48.598694,27.859863 -0.686157,86.654785 13.466858,125.180908c-17.676392,4.415283 -14.45813,-4.072754 -20.241638,-17.49292l-0.000061,-0.000732z"/>
  <line fill="none" stroke="#1f1a17" stroke-width="1.052054" y2="2259.9438" x2="213.9568" y1="2297.5188" x1="199.34309" class="fil10 str2" id="_167105968"/>
  <path fill="url(#linearGradient8375)" stroke="#1f1a17" stroke-width="1.052054" id="_166708688" d="m424.797485,2355.973389c9.685242,-3.631104 19.428528,-11.154297 22.962952,-20.875488c5.474274,-15.054443 9.994507,-34.08252 2.087524,-48.013184c-8.956268,-15.781006 -28.974304,-22.753174 -45.925842,-29.225586c-21.928864,-8.372314 -45.583435,-11.817139 -68.888794,-14.612793c-11.764496,-1.411133 -23.643555,1.768555 -35.488159,2.087646c-13.911407,0.375488 -28.085083,-2.627686 -41.750763,0c-5.336197,1.025635 -7.393356,8.652344 -12.525238,10.4375c-11.344772,3.946045 -28.600067,-3.577393 -35.488159,6.262695c-10.890533,15.558594 -17.30777,39.616211 -8.350143,56.363525c10.299622,19.255859 35.36528,27.401855 56.363541,33.400635c19.402222,5.543213 40.546844,-2.743408 60.538635,0c15.914673,2.184326 29.87439,13.984619 45.925842,14.612793c20.461182,0.802002 41.36557,-3.248779 60.538605,-10.437744l0,0z"/>
  <path fill="url(#linearGradient8372)" stroke="#1f1a17" stroke-width="1.052054" id="_165784800" d="m2061.42627,2226.542725c11.92041,-22.217529 25.729736,-46.654785 48.013428,-58.450928c17.229004,-9.12207 39.300049,-1.560303 58.450928,2.087402c10.69873,2.037842 18.413818,15.923096 29.225586,14.612793c15.165039,-1.837646 24.499512,-21.114258 39.66333,-22.962891c15.750244,-1.92041 36.448975,-0.200195 45.925781,12.525146c17.875244,24.003906 40.070557,58.598877 27.137939,85.589111c-11.0271,23.01416 -49.862061,11.195557 -75.151367,14.612793c-26.284912,3.551025 -52.805664,6.664551 -79.326416,6.262451c-19.678467,-0.296631 -39.576172,-2.773438 -58.451172,-8.350098c-12.250488,-3.618652 -25.590332,-8.679932 -33.400391,-18.787842c-5.547607,-7.177979 -6.377197,-19.144043 -2.087646,-27.137939l0,0z"/>
  <path fill="url(#linearGradient8369)" stroke="#1f1a17" stroke-width="1.052054" id="_166241056" d="m216.043625,2401.895508c25.236832,-14.883301 58.418015,-4.723145 87.67662,-6.262695c36.85495,-1.938477 78.023163,-21.442871 110.639557,-4.175049c16.964081,8.981201 -21.140411,36.718262 -39.663239,41.750732c-49.133148,13.351074 -102.438446,20.295654 -152.390549,10.437744c-13.805038,-2.723877 -18.383347,-34.603027 -6.262619,-41.750732l0.000229,0z"/>
  <path fill="url(#linearGradient8366)" stroke="#1f1a17" stroke-width="1.052054" id="_166160224" d="m243.18187,2535.5c33.624283,-19.813721 75.840347,-20.912842 114.814621,-22.963135c28.105804,-1.478516 58.921875,-1.183105 83.501556,12.525391c15.765625,8.791748 38.372314,35.833252 25.050476,48.013428c-24.575592,22.468506 -65.203796,13.724854 -98.114319,18.787598c-21.419373,3.294434 -43.114899,8.032715 -64.713715,6.262695c-21.532532,-1.764404 -47.611572,-1.167969 -62.62616,-16.700195c-10.650314,-11.017578 -11.114227,-38.145996 2.08754,-45.925781l0,0z"/>
  <path fill="url(#linearGradient8363)" stroke="#1f1a17" stroke-width="1.052054" id="_166708712" d="m211.86879,2700.424316c60.310745,-5.42041 121.186203,-8.054688 181.615616,-4.175049c16.505676,1.058838 35.49646,5.951904 45.925873,18.787842c10.243011,12.606689 15.950562,33.657471 8.350159,48.013428c-8.007751,15.126221 -29.841309,17.114502 -45.925842,22.962891c-14.753662,5.36377 -30.25412,11.340576 -45.925873,10.437744c-21.56842,-1.243896 -41.221985,-13.763672 -62.62616,-16.700439c-14.492706,-1.988037 -29.584442,5.376221 -43.838318,2.087646c-13.961121,-3.221191 -30.150528,-8.62207 -37.575699,-20.875488c-8.325302,-13.737305 -4.175064,-31.949463 -4.175064,-48.013428c0,-4.400146 -0.207108,-12.131592 4.175064,-12.525146l0.000244,0z"/>
  <path fill="url(#linearGradient8360)" stroke="#1f1a17" stroke-width="1.052054" id="_166708136" d="m2053.078857,2324.665039c30.718018,-24.135254 78.150146,-13.297119 116.9021,-8.350098c28.459229,3.632568 51.956543,24.799072 79.32666,33.400635c21.612549,6.79126 50.782959,-3.493164 66.801025,12.525146c12.791748,12.791748 13.542969,42.281006 0,54.275879c-18.41626,16.311035 -48.484131,9.414795 -73.063721,10.437744c-42.414795,1.767334 -85.094727,2.090576 -127.340332,-2.087402c-21.499512,-2.126465 -51.176514,1.619385 -62.626221,-16.700439c-14.750732,-23.602051 -21.886108,-66.30542 0,-83.501465l0.000488,0z"/>
  <path fill="url(#linearGradient8357)" stroke="#1f1a17" stroke-width="1.052054" id="_166708448" d="m673.215332,3078.264648c57.802246,-12.534912 119.024536,-9.26001 177.440796,0c9.168823,1.452393 1.460693,21.989502 -6.262634,27.137939c-16.14801,10.764893 -37.042847,12.773926 -56.363525,14.612793c-24.946899,2.374756 -50.109253,-1.143066 -75.151428,-2.087402c-11.840393,-0.446045 -27.110413,6.290039 -35.488159,-2.087646c-8.910706,-8.910645 -16.490479,-34.905518 -4.175049,-37.575684l0,0z"/>
  <path fill="#cddde4" stroke="#1f1a17" stroke-width="1.052054" id="_166160632" d="m631.464539,3193.081543c32.036499,19.831543 75.096191,10.230713 112.727112,8.350098c18.905212,-0.944336 35.479858,-18.936768 54.276001,-16.700195c14.244141,1.695557 19.301392,29.780518 33.400574,27.137939c16.987488,-3.185303 31.622314,-22.471436 33.400635,-39.663086c1.173584,-11.351807 -16.310974,-17.266602 -27.138,-20.875488c-15.239624,-5.079346 -31.964722,-4.88208 -48.013367,-4.175049c-31.47467,1.387451 -62.434204,10.437744 -93.93927,10.437744c-13.671143,0 -27.676453,-17.010986 -39.663208,-10.437744c-15.289368,8.384521 -39.877197,36.748535 -25.050476,45.925781l0,0z"/>
  <path fill="#cddde4" stroke="#1f1a17" stroke-width="1.052054" id="_166707992" d="m635.639404,3261.9646c46.756958,-7.2854 94.793823,-6.016602 141.95282,-2.087402c12.403809,1.032715 21.103271,14.779785 33.400635,16.700195c11.191528,1.748047 24.459595,-13.216797 33.400635,-6.262451c9.400818,7.311768 11.133545,25.822266 4.175049,35.488037c-8.757446,12.163574 -28.635925,9.445068 -41.750732,16.700439c-19.75708,10.929199 -34.062012,34.04126 -56.363586,37.575684c-37.953979,6.016846 -81.321533,8.402588 -114.814636,-10.437744c-19.576172,-11.011963 -18.787842,-42.251953 -18.787842,-64.713623c0,-9.889648 9.017029,-21.440186 18.787842,-22.963135l-0.000183,0z"/>
  <path fill="#cddde4" stroke="#1f1a17" stroke-width="1.052054" id="_166708016" d="m907.019409,3207.695313c8.844421,-15.918945 19.490601,-37.524658 37.575684,-39.66333c52.120789,-6.164551 107.952881,-3.083008 156.56543,16.700439c18.790649,7.645996 33.772095,39.196533 22.962891,56.363525c-10.381104,16.487549 -38.981079,0.702637 -58.45105,0c-38.303345,-1.383545 -76.715637,-2.087646 -114.814636,-6.262695c-12.921448,-1.415039 -26.523621,-3.596436 -37.575684,-10.437744c-5.054565,-3.128418 -9.149536,-11.503418 -6.262634,-16.700195l0,0z"/>
  <path fill="#cddde4" stroke="#1f1a17" stroke-width="1.052054" id="_165784944" d="m1350.206421,3173.113281c-21.016357,11.507813 -20.379761,49.61499 31.312988,50.189453c43.921143,0.48877 106.541748,-7.282959 149.670044,-15.612305c19.249023,-3.718018 42.101563,-10.325928 52.188599,-27.137939c5.591675,-9.31958 -10.098145,-23.64502 -20.875488,-25.050537c-25.181519,-3.284668 -49.762695,13.070557 -75.151367,12.525146c-40.041626,-0.858887 -102.017456,-14.148682 -137.145508,5.086182l0.000732,0z"/>
  <path fill="#cddde4" stroke="#1f1a17" stroke-width="1.052054" id="_166708664" d="m1410.484985,3264.969238c60.459961,-7.04126 98.302002,-12.679932 154.110352,11.614258c13.412964,5.837158 10.009644,35.612305 -2.087646,43.838135c-29.170288,19.835693 -67.494141,21.339355 -102.289429,27.138184c-36.480713,6.078857 -76.480957,22.527832 -110.639404,8.350098c-16.708618,-6.935059 -5.431519,-37.020752 0,-54.276123c6.842407,-21.741211 38.267334,-34.027588 60.905762,-36.664551l0.000366,0z"/>
  <path fill="#cddde4" stroke="#1f1a17" stroke-width="1.052054" id="_166708160" d="m1643.918457,3195.162598c-11.333618,-23.654785 5.376221,-62.145752 29.225586,-73.063965c43.696167,-20.005615 97.02771,3.708496 144.039673,-6.262451c23.814697,-5.050537 41.319946,-49.350098 62.626221,-37.575684c24.245483,13.398926 29.965576,57.09375 16.700317,81.413818c-17.200195,31.5354 -58.023193,44.282959 -91.851807,56.36377c-26.28479,9.386963 -55.822388,9.856201 -83.501587,6.262451c-27.060669,-3.513672 -65.446777,-2.529297 -77.238892,-27.137939l0.000488,0z"/>
  <path fill="#cddde4" stroke="#1f1a17" stroke-width="1.052054" id="_166155168" d="m1688.121948,3267.050293c56.275269,-7.463623 119.405762,-13.874023 174.265503,0.720703c21.368408,5.684082 13.337158,21.355957 27.858887,38.031494c8.275513,9.501465 8.109863,34.768799 -4.175171,37.575684c-23.389526,5.345703 -44.984253,-18.819824 -68.888794,-20.875488c-41.619629,-3.580078 -83.635498,7.793701 -125.252319,4.175049c-23.240479,-2.02002 -58.92041,1.07959 -66.801147,-20.875244c-8.022949,-22.352783 39.450439,-35.630371 62.993286,-38.752197l-0.000244,0z"/>
  <path fill="url(#linearGradient8347)" stroke="#1f1a17" stroke-width="1.052054" id="_168516216" d="m917.457092,3055.303711c60.215637,-19.635742 127.671204,-15.616699 189.966492,-4.175293c14.500977,2.66333 21.47876,28.703613 14.612793,41.750977c-10.516357,19.980469 -34.45813,32.099854 -56.363525,37.575684c-38.531128,9.632568 -79.515686,10.647461 -118.989502,6.262451c-12.863464,-1.428955 -26.940552,-10.781494 -31.313049,-22.962891c-6.585693,-18.348877 -16.447693,-52.407959 2.087524,-58.450928l-0.000732,0z"/>
  <path fill="url(#linearGradient8344)" stroke="#1f1a17" stroke-width="1.052054" id="_167105800" d="m1345.401367,3030.249756c57.14917,-28.852539 129.786133,-25.314209 192.053345,-10.437744c22.617798,5.402588 46.871582,31.219238 43.838257,54.276123c-2.598267,19.755615 -37.952515,13.624268 -54.276001,25.050537c-5.613525,3.929199 -1.751953,16.936279 -8.350098,18.787842c-35.81543,10.05249 -73.442139,15.007568 -110.639526,14.612793c-29.06543,-0.308105 -72.764282,9.381592 -85.589111,-16.700439c-16.620239,-33.79541 -10.659912,-68.615479 22.962891,-85.589111l0.000244,0z"/>
  <path fill="url(#linearGradient8341)" stroke="#1f1a17" stroke-width="1.052054" id="_166241176" d="m1641.837524,3042.770752c5.07666,-23.696045 23.150635,-48.082275 45.925781,-56.363525c28.840454,-10.487305 61.179321,7.220947 91.851685,6.262695c14.338135,-0.447266 27.405884,-10.437744 41.750854,-10.437744c15.02002,0 31.906738,1.314453 43.838257,10.437744c13.651855,10.438965 37.378296,30.037354 27.137939,43.838379c-15.490845,20.879395 -50.731812,11.953613 -75.151367,20.875244c-11.997803,4.383545 -20.706909,17.358887 -33.400635,18.787842c-38.036743,4.285645 -77.554932,6.679688 -114.814575,-2.087402c-13.444702,-3.163086 -30.03186,-17.807617 -27.137939,-31.313232l0,0z"/>
  <path fill="#84a1aa" stroke="#1f1a17" stroke-width="1.052054" id="_168517032" d="m1308.282593,2489.133545c0,0 0,4.902588 0,4.902588l0,4.901367c0,0 0,4.902588 0,4.902588l0,4.901367c0,0 0,4.902588 0,4.902588c0,7.356201 -1.181885,4.901367 -4.720459,4.901367c0,0 -4.720581,0 -4.720581,0c0,0 -2.360718,-4.901367 -2.360718,-14.705322c0,0 0,-14.706543 0,-14.706543c0,-4.901367 2.360718,-4.901367 2.360718,-9.803955c0,-8.169189 7.040039,-10.139404 9.44104,9.803955l0,0z"/>
  <path fill="#84a1aa" stroke="#1f1a17" stroke-width="1.052054" id="_166154688" d="m1272.753662,2563.195801c0,0 0,2.178711 0,2.178711l0,2.178467c0,0 0,2.178711 0,2.178711l0,2.178711c0,0 0,2.178711 0,2.178711c0,3.269287 -1.09082,2.178467 -4.3573,2.178467c0,0 -4.357422,0 -4.357422,0c0,0 -2.178589,-2.178467 -2.178589,-6.535889c0,0 0,-6.535889 0,-6.535889c0,-2.178711 2.178589,-2.178711 2.178589,-4.357422c0,-3.631104 6.498901,-4.506348 8.714722,4.357422l0,0z"/>
  <path fill="#84a1aa" stroke="#1f1a17" stroke-width="1.052054" id="_166155000" d="m1310.550659,2664.474609c0,0 0,4.902588 0,4.902588l0,4.901367c0,0 0,4.902588 0,4.902588l0,4.901367c0,0 0,4.902588 0,4.902588c0,7.356201 -1.636108,4.901367 -6.536011,4.901367c0,0 -6.534668,0 -6.534668,0c0,0 -3.267944,-4.901367 -3.267944,-14.705322c0,0 0,-14.706543 0,-14.706543c0,-4.901367 3.267944,-4.901367 3.267944,-9.803955c0,-8.169189 9.747314,-10.139404 13.070679,9.803955l0,0z"/>
  <path fill="#84a1aa" stroke="#1f1a17" stroke-width="1.052054" id="_166730856" d="m1237.692505,2703.475586c0,0 0,2.178711 0,2.178711l0,2.178711c0,0 0,2.178711 0,2.178711l0,2.178467c0,0 0,2.178711 0,2.178711c0,3.269287 -1.09082,2.178711 -4.3573,2.178711c0,0 -4.357422,0 -4.357422,0c0,0 -2.178589,-2.178711 -2.178589,-6.535889c0,0 0,-6.536133 0,-6.536133c0,-2.178711 2.178589,-2.178711 2.178589,-4.357178c0,-3.631104 6.498779,-4.506592 8.714722,4.357178l0,0z"/>
  <path fill="#84a1aa" stroke="#1f1a17" stroke-width="1.052054" id="_168517920" d="m1293.306396,2806.578369c0,0 0,3.631104 0,3.631104l0,3.631104c0,0 0,3.631104 0,3.631104l0,3.631104c0,0 0,3.631104 0,3.631104c0,5.449219 1.818359,3.631104 7.262207,3.631104c0,0 7.262207,0 7.262207,0c0,0 3.631104,-3.631104 3.631104,-10.893311c0,0 0,-10.893311 0,-10.893311c0,-3.631104 -3.631104,-3.631104 -3.631104,-7.262207c0,-6.051514 -10.831177,-7.510742 -14.524414,7.262207l0,0z"/>
  <path fill="#84a1aa" stroke="#1f1a17" stroke-width="1.052054" id="_166708568" d="m1223.160645,2911.7854c0,0 0,3.631104 0,3.631104l0,3.631104c0,0 0,3.631104 0,3.631104l0,3.631104c0,0 0,3.631104 0,3.631104c0,5.449219 1.818237,3.631104 7.262207,3.631104c0,0 7.262207,0 7.262207,0c0,0 3.630981,-3.631104 3.630981,-10.893311c0,0 0,-10.893311 0,-10.893311c0,-3.631104 -3.630981,-3.631104 -3.630981,-7.262207c0,-6.051514 -10.831299,-7.510986 -14.524414,7.262207l0,0z"/>
  <path fill="#84a1aa" stroke="#1f1a17" stroke-width="1.052054" id="_166124288" d="m1258.233521,3052.065186c0,0 0,3.631104 0,3.631104l0,3.631104c0,0 0,3.631104 0,3.631104l0,3.631104c0,0 0,3.631104 0,3.631104c0,5.449219 1.818237,3.631104 7.262207,3.631104c0,0 7.262207,0 7.262207,0c0,0 3.631104,-3.631104 3.631104,-10.893311c0,0 0,-10.893311 0,-10.893311c0,-3.631104 -3.631104,-3.631104 -3.631104,-7.262207c0,-6.05127 -10.831177,-7.510742 -14.524414,7.262207l0,0z"/>
  <path fill="#84a1aa" stroke="#1f1a17" stroke-width="1.052054" id="_166124360" d="m1223.160645,2455.895996c0,0 0,3.631104 0,3.631104l0,3.631104c0,0 0,3.631104 0,3.631104l0,3.631104c0,0 0,3.631104 0,3.631104c0,5.449463 1.818237,3.631104 7.262207,3.631104c0,0 7.262207,0 7.262207,0c0,0 3.630981,-3.631104 3.630981,-10.893311c0,0 0,-10.893311 0,-10.893311c0,-3.631104 -3.630981,-3.631104 -3.630981,-7.262207c0,-6.05127 -10.831299,-7.510498 -14.524414,7.262207l0,0z"/>
  <path fill="#84a1aa" stroke="#1f1a17" stroke-width="1.052054" id="_167105464" d="m1205.343628,2594.340576c0,0 0,4.902588 0,4.902588l0,4.901123c0,0 0,4.902832 0,4.902832l0,4.901367c0,0 0,4.902588 0,4.902588c0,7.356201 -1.635986,4.901367 -6.535889,4.901367c0,0 -6.53479,0 -6.53479,0c0,0 -3.267944,-4.901367 -3.267944,-14.705322c0,0 0,-14.706543 0,-14.706543c0,-4.901367 3.267944,-4.901367 3.267944,-9.803955c0,-8.169434 9.747314,-10.139404 13.070679,9.803955l0,0z"/>
  <path fill="#84a1aa" stroke="#1f1a17" stroke-width="1.052054" id="_168517992" d="m1293.306396,2946.858154c0,0 0,3.631104 0,3.631104l0,3.631104c0,0 0,3.631104 0,3.631104l0,3.631104c0,0 0,3.631104 0,3.631104c0,5.449219 1.818359,3.631104 7.262207,3.631104c0,0 7.262207,0 7.262207,0c0,0 3.631104,-3.631104 3.631104,-10.893311c0,0 0,-10.893311 0,-10.893311c0,-3.631104 -3.631104,-3.631104 -3.631104,-7.262207c0,-6.05127 -10.831177,-7.510742 -14.524414,7.262207l0,0z"/>
  <path fill="#84a1aa" stroke="#1f1a17" stroke-width="1.052054" id="_169205600" d="m1188.099365,3157.272217c0,0 0,3.631104 0,3.631104l0,3.631104c0,0 0,3.630859 0,3.630859l0,3.631104c0,0 0,3.631104 0,3.631104c0,5.449463 1.818359,3.631104 7.262207,3.631104c0,0 7.262207,0 7.262207,0c0,0 3.631104,-3.631104 3.631104,-10.893311c0,0 0,-10.893066 0,-10.893066c0,-3.631104 -3.631104,-3.631104 -3.631104,-7.262207c0,-6.051514 -10.831177,-7.510742 -14.524414,7.262207l0,0z"/>
  <path fill="#84a1aa" stroke="#1f1a17" stroke-width="1.052054" id="_166155120" d="m1293.306396,3227.40625c0,0 0,3.631104 0,3.631104l0,3.631104c0,0 0,3.631104 0,3.631104l0,3.631104c0,0 0,3.631104 0,3.631104c0,5.449219 1.818359,3.631104 7.262207,3.631104c0,0 7.262207,0 7.262207,0c0,0 3.631104,-3.631104 3.631104,-10.893311c0,0 0,-10.893311 0,-10.893311c0,-3.631104 -3.631104,-3.631104 -3.631104,-7.262207c0,-6.05127 -10.831177,-7.510742 -14.524414,7.262207l0,0z"/>
  <path fill="#84a1aa" stroke="#1f1a17" stroke-width="1.052054" id="_169206368" d="m1188.099365,2806.578369c0,0 0,3.631104 0,3.631104l0,3.631104c0,0 0,3.631104 0,3.631104l0,3.631104c0,0 0,3.631104 0,3.631104c0,5.449219 1.818359,3.631104 7.262207,3.631104c0,0 7.262207,0 7.262207,0c0,0 3.631104,-3.631104 3.631104,-10.893311c0,0 0,-10.893311 0,-10.893311c0,-3.631104 -3.631104,-3.631104 -3.631104,-7.262207c0,-6.051514 -10.831177,-7.510742 -14.524414,7.262207l0,0z"/>
  <path fill="#84a1aa" stroke="#1f1a17" stroke-width="1.052054" id="_169204904" d="m1223.160645,3016.992188c0,0 0,3.631104 0,3.631104l0,3.631104c0,0 0,3.631104 0,3.631104l0,3.631104c0,0 0,3.631104 0,3.631104c0,5.449463 1.818237,3.631104 7.262207,3.631104c0,0 7.262207,0 7.262207,0c0,0 3.630981,-3.631104 3.630981,-10.893311c0,0 0,-10.893311 0,-10.893311c0,-3.631104 -3.630981,-3.631104 -3.630981,-7.262207c0,-6.05127 -10.831299,-7.510742 -14.524414,7.262207l0,0z"/>
  <path fill="#84a1aa" stroke="#1f1a17" stroke-width="1.052054" id="_169205168" d="m1258.233521,3157.272217c0,0 0,3.631104 0,3.631104l0,3.631104c0,0 0,3.630859 0,3.630859l0,3.631104c0,0 0,3.631104 0,3.631104c0,5.449463 1.818237,3.631104 7.262207,3.631104c0,0 7.262207,0 7.262207,0c0,0 3.631104,-3.631104 3.631104,-10.893311c0,0 0,-10.893066 0,-10.893066c0,-3.631104 -3.631104,-3.631104 -3.631104,-7.262207c0,-6.051514 -10.831177,-7.510742 -14.524414,7.262207l0,0z"/>
  <path fill="#84a1aa" stroke="#1f1a17" stroke-width="1.052054" id="_169205696" d="m1237.692505,3299.633057c0,0 0,2.178467 0,2.178467l0,2.178955c0,0 0,2.178467 0,2.178467l0,2.178711c0,0 0,2.178711 0,2.178711c0,3.269287 -1.09082,2.178467 -4.3573,2.178467c0,0 -4.357422,0 -4.357422,0c0,0 -2.178589,-2.178467 -2.178589,-6.535889c0,0 0,-6.535889 0,-6.535889c0,-2.178711 2.178589,-2.178711 2.178589,-4.357422c0,-3.631104 6.498779,-4.506348 8.714722,4.357422l0,0z"/>
  <g id="g252" transform="matrix(1.1690965,0,0,1.1690965,-141.85305,-274.62231) ">
   <path fill="url(#linearGradient7777)" stroke="#1f1a17" stroke-width="4.1664" id="_168516336" d="m202.628006,1166.699951c47.623093,-32.093506 103.008987,-54.943726 142.871994,-96.282959c18.862213,-19.561279 8.256042,-54.286011 27.132385,-73.83551c20.377319,-16.333801 47.717621,-22.843201 66.051819,-12.366882c25.440094,14.536316 46.497589,50.707642 40.751099,79.439087c-7.32309,36.617798 -46.174103,57.512451 -78.029114,71.987305c-15.48819,19.674683 -18.537384,48.61145 -37.270874,65.223999l-164.613022,145.978027l3.105911,-180.141968l-0.000198,-0.001099z"/>
   <polygon fill="#ffffff" id="_167105032" points="198.609,1171.7 207.282,1166.08 203.662,1340.41 196.309,1346.86 198.609,1171.7 "/>
  </g>
  <path fill="url(#linearGradient8319)" stroke="#1f1a17" stroke-width="4.870924" id="_169206512" d="m2378.999512,1289.067627c-48.413818,-3.631104 -106.643799,-7.998169 -145.243896,-10.893188c-38.600098,-2.895386 -48.511719,-23.40625 -74.79248,-35.62915c-26.280518,-12.2229 -58.790527,-23.836792 -81.344971,-36.993042c-22.554199,-13.156128 -18.612549,-28.869263 -39.969727,-41.430298c-22.080688,-1.709351 -77.219604,-3.825806 -77.700073,-50.725098c8.924561,-39.664673 36.973755,-95.386169 90.846558,-98.859863c53.873047,-3.473694 90.606445,101.940063 128.494385,103.868896l199.710938,-3.631104l0,174.29248l-0.000732,0.000366z"/>
  <polygon fill="#ffffff" id="_166160608" points="2389.778611222168,1116.941608652832 2371.64591309021,1117.2688472117309 2373.598498333496,1286.191731791748 2390.725647888916,1287.430899871521 2389.778611222168,1116.941608652832 "/>
  <text font-size="87.671135px" font-weight="normal" fill="#1f1a17" font-family="Arial" id="text261" y="278.516245" x="1818.258981">Outer epidermis</text>
  <text font-size="87.671135px" font-weight="normal" fill="#1f1a17" font-family="Arial" id="_169206584" y="139.25423" x="1304.313953">Nematocyst</text>
  <text font-size="87.671135px" font-weight="normal" fill="#1f1a17" font-family="Arial" id="_168517488" y="279.52826" x="504.44339"/>
  <text font-size="87.671135px" font-weight="normal" fill="#1f1a17" font-family="Arial" id="_166138144" y="560.0752" x="80.659912"/>
  <text font-size="87.671135px" font-weight="normal" fill="#1f1a17" font-family="Arial" id="_168516960" y="1739.903029" x="99.086599">Gastrodermis</text>
  <text font-size="87.671135px" font-weight="normal" fill="#1f1a17" font-family="Arial" id="_166731336" y="1953.1613" x="124.00768"/>
  <text font-size="87.671135px" font-weight="normal" fill="#1f1a17" font-family="Arial" id="text270" y="1850.3508" x="1926.6995"/>
  <text font-size="87.671135px" font-weight="normal" fill="#1f1a17" font-family="Arial" id="_168517176" y="1506.9287" x="1960.755689">Digestive</text>
  <text font-size="87.671135px" font-weight="normal" fill="#1f1a17" font-family="Arial" id="text273" y="1604.864" x="1987.0951"/>
  <text font-size="87.671135px" font-style="normal" font-weight="normal" text-anchor="start" fill="#1f1a17" font-family="Arial" id="_169204712" y="1226.3807" x="1375.4178">
   <tspan id="tspan7927" y="1226.3807" x="1375.4178">Mesoglea</tspan>
  </text>
  <text font-size="87.671135px" font-weight="normal" fill="#1f1a17" font-family="Arial" id="_166876664" y="2664.1824" x="2018.7542">Theca</text>
  <path fill="#cddde4" stroke="#1f1a17" stroke-width="1.052054" id="_166155192" d="m916.186279,3297.037598c46.756958,-7.285645 94.793823,-6.016846 141.952881,-2.087402c12.403687,1.032715 21.103271,14.779785 33.400635,16.700195c78.768677,12.293213 37.862793,22.670166 -4.175049,45.926025c-71.097839,39.330322 -189.966553,86.698975 -189.966553,-37.575928c0,-9.889648 9.017029,-21.439941 18.787842,-22.962891l0.000244,0z"/>
  <text style="cursor: move;" font-size="87.671135px" font-weight="normal" fill="#1f1a17" font-family="Arial" id="_168517824" y="2970.1465" x="168.634264">Gastropod</text>
  <text font-size="87.671135px" font-weight="normal" fill="#1f1a17" font-family="Arial" id="_168517752" y="3260.3513" x="2011.4122"/>
  <line fill="none" stroke="#1f1a17" stroke-width="4.870924" y2="305.04263" x2="1111.7457" y1="246.94437" x1="846.67645" class="fil10 str0" id="_165784848"/>
  <line fill="none" stroke="#1f1a17" stroke-width="4.870924" y2="486.59744" x2="1463.9595" y1="159.79875" x1="1442.1792" class="fil10 str0" id="_169205240"/>
  <circle fill="none" stroke="#1f1a17" stroke-width="4.1664" id="_166124456" transform="matrix(1.1690965,0,0,1.1690965,-141.85305,-274.62231) " r="20.1884" cy="670.04303" cx="1373.6801"/>
  <line fill="none" stroke="#1f1a17" stroke-width="4.870924" y2="813.3974" x2="2070.3582" y1="301.41141" x1="2157.5027" class="fil10 str0" id="_168049352"/>
  <line fill="none" stroke="#1f1a17" stroke-width="4.870924" y2="1688.4895" x2="1220.6821" y1="1510.5647" x1="646.96558" class="fil10 str0" id="_168517368"/>
  <line fill="none" stroke="#1f1a17" stroke-width="4.870924" y2="1746.5935" x2="843.04523" y1="1724.8015" x1="654.22803" class="fil10 str0" id="_166124384"/>
  <line fill="none" stroke="#1f1a17" stroke-width="4.870924" y2="2127.8594" x2="334.69174" y1="1975.3507" x1="356.47784" class="fil10 str0" id="_168049592"/>
  <line fill="none" stroke="#1f1a17" stroke-width="4.870924" y2="1884.5703" x2="1554.7397" y1="1775.6339" x1="1917.8495" class="fil10 str0" id="_168517464"/>
  <line fill="none" stroke="#1f1a17" stroke-width="4.870924" y2="1528.7207" x2="1565.6357" y1="1532.3566" x1="1936.0055" class="fil10 str0" id="_166155024"/>
  <polyline fill="none" stroke="#1f1a17" stroke-width="4.1664" points="1903.329288496521,2970.275240041748 1634.624188895874,2970.275240041748 1634.624188895874,3006.5874458334956 1336.878629482605,3002.9514301319577 " class="fil10 str0" id="_166154880"/>
  <line fill="none" stroke="#1f1a17" stroke-width="4.870924" y2="2661.6338" x2="1249.7343" y1="2933.9631" x1="599.76215" class="fil10 str0" id="_167105824"/>
  <line fill="none" stroke="#1f1a17" stroke-width="4.870924" y2="1144.153" x2="1221.9346" y1="544.3653" x1="576.72601" class="fil10 str0" id="_166160776"/>
  <path fill="#dd8281" stroke="#1f1a17" stroke-width="4.870924" id="_166708304" d="m764.519409,3055.280273c-55.377747,6.404785 -77.294128,-32.231201 -81.048096,-84.029053c-11.397217,-157.260986 -11.699585,-326.340332 4.264832,-482.788818c1.742371,-17.075928 3.136841,-34.211182 3.475098,-51.376709c5.671692,-286.855469 -414.39679,-275.018311 -610.640152,-261.248779l-0.658562,-14.916504c147.195091,-10.309326 303.975624,-12.289063 444.905525,37.379883c265.893433,93.711426 160.179077,297.391113 168.64917,506.667725c3.68634,91.065918 -4.038391,183.758545 4.532654,274.417236c8.492371,89.837402 160.428101,85.706543 171.707581,20.651855c26.718262,-154.101074 -0.445984,-324.103027 4.307617,-480.615723c1.838989,-60.574463 48.219116,-58.597412 56.552673,-8.563965c23.668518,142.086182 -8.687012,289.220459 7.984314,431.322998c10.033142,85.518555 96.525085,85.387451 166.624329,72.26416c86.456055,-16.185303 40.999756,-282.05957 44.99939,-353.005127c3.295654,-58.441406 -0.211182,-121.529785 11.631958,-178.249756c20.403198,-97.711182 176.581421,-110.518311 191.258301,-9.333252c20.082886,138.466553 0.360352,282.900391 8.036743,422.546631c6.026611,109.624756 121.190918,100.240479 199.727295,63.192139c34.528564,-16.287598 5.281006,-70.120361 4.16272,-100.4104c-4.47876,-121.338135 -4.770142,-249.986572 -1.16394,-371.201904c0.588135,-19.773926 0.549561,-47.64502 17.04834,-61.378174c15.24646,-5.55835 28.502075,-4.666504 37.538452,10.34668c26.193604,43.519287 30.450073,144.037354 30.579834,244.532959c0.161499,125.180908 -3.880981,250.063721 45.54895,261.557129c48.391724,11.250977 129.4646,7.68335 137.432007,-52.309814c20.049805,-150.955078 -1.06189,-316.689697 4.292236,-470.355713c2.993286,-85.918945 -10.477539,-315.621094 105.38208,-339.097656c143.551147,-29.085938 317.313843,-35.485229 453.108032,22.035156l0,15.671875c-138.156982,-53.859131 -309.38623,-59.07251 -454.610229,-23.219971c-109.098877,26.933838 -88.45813,303.061523 -92.52002,385.609131c-6.765137,137.454102 19.235107,285.212646 -3.327393,420.333496c-11.993652,71.827881 -181.519775,86.277832 -195.399292,11.2771c-5.551514,-29.994629 -8.890015,-138.514648 -13.120239,-244.676758c-4.408447,-110.646484 -10.091064,-218.697021 -35.351563,-230.473389c-28.40686,-13.241699 -23.053955,69.996094 -22.878784,80.215576c2.289185,132.51001 -12.504517,274.530762 13.175537,404.008057c13.642212,68.786621 -96.609497,68.326904 -141.970459,71.706787c-143.470337,10.69165 -103.28894,-198.393311 -102.990601,-292.622559c0.133911,-42.316895 18.906494,-240.684326 -24.92627,-265.885254c-28.421997,-16.341309 -65.608398,-20.880859 -97.016724,-11.328125c-82.91333,25.21875 -59.986206,324.366943 -58.225952,380.96875c2.443726,78.552002 30.649048,224.190674 -82.626343,225.243896c-47.866943,0.44458 -126.93335,11.23291 -149.558899,-43.705811c-27.078613,-65.757324 23.765076,-470.664063 -28.950806,-497.886475c-31.115601,-16.068115 -16.323364,143.063477 -16.063843,158.349365c1.84314,108.59082 8.209351,220.100098 -1.685791,328.366455c-7.782654,85.158447 -53.362,79.551514 -122.192749,80.015381l0.001038,-0.000732z"/>
  <text font-size="32px" font-style="normal" font-weight="normal" fill="#000000" font-family="Bitstream Vera Sans" text-anchor="start" id="text3224" y="1472.8254" x="218.46976" xml:space="preserve"/>
  <text font-size="87.671135px" font-weight="normal" fill="#1f1a17" font-family="Arial" id="svg_1" y="258.012502" x="466.755615">Tentacle</text>
  <text style="cursor: move;" font-size="87.671135px" font-weight="normal" fill="#1f1a17" font-family="Arial" id="svg_2" y="558.033399" x="279.242555">Mouth</text>
  <text font-size="87.671135px" font-weight="normal" fill="#1f1a17" font-family="Arial" id="svg_3" y="1613.186101" x="1985.75743">filament</text>
  <text font-size="87.671135px" font-weight="normal" fill="#1f1a17" font-family="Arial" id="svg_6" y="1527.388236" x="261.59792">Stomach</text>
  <text font-size="87.671135px" font-weight="normal" fill="#1f1a17" font-family="Arial" id="svg_7" y="1952.41784" x="174.091825">Coenosarc</text>
  <text style="cursor: move;" font-size="87.671135px" font-weight="normal" fill="#1f1a17" font-family="Arial" id="svg_8" y="1788.198293" x="1967.006124">Septum</text>
  <text style="cursor: move;" font-size="87.671135px" font-weight="normal" fill="#1f1a17" font-family="Arial" id="svg_9" y="3007.956326" x="1943.748974">Basal plate</text>
 </g>
</svg>