<?xml version="1.0" encoding="utf-8"?>
<!-- Generator: Adobe Illustrator 26.5.0, SVG Export Plug-In . SVG Version: 6.00 Build 0)  -->
<svg version="1.1" id="Original" xmlns="http://www.w3.org/2000/svg" xmlns:xlink="http://www.w3.org/1999/xlink" x="0px" y="0px"
	 viewBox="0 0 93.202 34.016" enable-background="new 0 0 93.202 34.016" xml:space="preserve">
<g>
	<g>
		<path d="M76.109,7.879h1.537v7.49h1.2v-7.49h1.537V6.823h-4.274V7.879z"/>
		<path d="M75.149,6.823H73.9v8.546h1.249V6.823z"/>
		<path d="M72.652,8.936c-0.048-0.672-0.288-1.249-0.72-1.633c-0.432-0.384-1.008-0.576-1.728-0.576
			c-0.672,0-1.152,0.192-1.584,0.528c-0.336,0.384-0.528,0.865-0.576,1.537c0,0.432,0.096,0.864,0.288,1.153
			c0.144,0.336,0.384,0.624,0.624,0.816l1.537,1.248c0.24,0.144,0.432,0.384,0.624,0.576c0.144,0.24,0.288,0.577,0.288,0.913
			c0,0.624-0.288,0.912-0.912,0.96c-0.432-0.048-0.768-0.24-0.912-0.624c-0.192-0.336-0.288-0.768-0.288-1.249l-1.248,0.337
			c0.048,0.72,0.288,1.344,0.672,1.824c0.384,0.432,1.008,0.672,1.777,0.672c0.672,0,1.2-0.144,1.584-0.528
			c0.336-0.336,0.528-0.816,0.576-1.44c-0.048-0.576-0.192-1.008-0.432-1.392c-0.24-0.432-0.48-0.72-0.816-0.96l-1.488-1.2
			c-0.192-0.192-0.336-0.336-0.432-0.528c-0.144-0.192-0.192-0.432-0.192-0.72c0-0.624,0.288-0.912,0.912-0.912
			c0.432,0,0.72,0.144,0.912,0.432c0.144,0.288,0.288,0.672,0.288,1.056L72.652,8.936z"/>
		<path d="M82.687,6.247h0.624l1.2-1.824h-1.2L82.687,6.247z"/>
		<path d="M84.656,6.823h-3.361v8.546h3.361v-0.912h-2.113v-3.073h1.488v-0.913h-1.488V7.735h2.113V6.823z"/>
		<path d="M89.841,10.328c-0.24-0.192-0.624-0.336-1.153-0.336h-1.2v5.377h1.153c0.576,0,1.008-0.144,1.2-0.432
			c0.24-0.288,0.384-0.72,0.384-1.297v-2.113C90.225,10.953,90.081,10.568,89.841,10.328z M89.313,10.856
			c0.096,0.24,0.144,0.48,0.144,0.864v1.728c0,0.384-0.048,0.72-0.096,0.96c-0.096,0.24-0.288,0.336-0.672,0.384h-0.432v-4.225
			h0.384C89.025,10.568,89.265,10.664,89.313,10.856z"/>
		<path d="M82.303,18.635H80.91v8.451h1.393V18.635z"/>
		<path d="M87.344,19.739v-1.104h-3.313v8.451h3.313v-1.057h-1.873v-2.785h1.489v-1.057h-1.489v-2.448H87.344z"/>
		<path d="M73.132,18.635h-1.44v8.451h3.361v-1.057h-1.921V18.635z"/>
		<path d="M77.742,18.635h-1.44v8.451h3.361v-1.057h-1.92V18.635z"/>
		<path d="M88.689,27.085h1.44v-3.841h0.672l0.96,3.841h1.44l-1.105-4.129c0.337-0.192,0.625-0.432,0.768-0.769
			c0.144-0.384,0.192-0.816,0.192-1.296c0-0.864-0.24-1.44-0.624-1.777c-0.432-0.336-1.057-0.48-1.873-0.48h-1.873V27.085z
			 M90.129,22.284v-2.593h0.528c0.384,0,0.672,0.096,0.816,0.336c0.192,0.192,0.24,0.528,0.24,0.96c0,0.432-0.096,0.768-0.288,0.96
			c-0.144,0.24-0.432,0.337-0.864,0.337H90.129z"/>
		<path d="M93.202,10.568V9.992h-2.113v5.377h2.113v-0.576h-1.345v-1.92h0.96v-0.576h-0.96v-1.729H93.202z"/>
		<path d="M53.638,6.823H52.39l1.825,8.546h1.248l1.824-8.546h-1.2l-1.248,6.722L53.638,6.823z"/>
		<path d="M61.609,7.735V6.823h-3.361v8.546h3.361v-0.912h-2.113v-3.073h1.488v-0.913h-1.488V7.735H61.609z"/>
		<path d="M64.201,6.823h-1.536v8.546h1.248v-3.985h0.912l1.2,3.985h1.248l-1.393-4.273c0.72-0.288,1.057-0.96,1.057-2.017
			c0-0.816-0.24-1.393-0.72-1.777C65.738,6.967,65.066,6.775,64.201,6.823z M64.201,7.735c0.528,0,0.864,0.096,1.153,0.288
			c0.24,0.24,0.384,0.576,0.384,1.056c0,0.528-0.144,0.864-0.384,1.104c-0.288,0.192-0.624,0.288-1.153,0.288h-0.288V7.735H64.201z"
			/>
		<path d="M42.787,6.823h-1.2v5.474c0,0.576-0.048,1.104-0.192,1.488c-0.144,0.432-0.48,0.624-1.057,0.672
			c-0.528-0.048-0.864-0.24-1.008-0.672c-0.144-0.384-0.24-0.912-0.192-1.488V6.823H37.89v5.474
			c-0.048,0.96,0.144,1.728,0.528,2.305c0.336,0.528,1.008,0.816,1.92,0.864c0.96-0.048,1.537-0.336,1.92-0.864
			c0.384-0.577,0.528-1.345,0.528-2.305V6.823z"/>
		<path d="M48.501,6.823h-1.2v5.281L45.14,6.823h-0.912v8.546h1.248V9.656l2.161,5.714h0.864V6.823z"/>
		<path d="M51.334,6.823h-1.249v8.546h1.249V6.823z"/>
		<path d="M43.699,18.635h-1.92l-0.96,5.666l-0.913-5.666H37.89v8.451h1.248l0.048-5.954l1.008,5.954h1.297
			c0.144-0.913,0.288-1.92,0.48-2.977c0.144-1.008,0.336-2.017,0.48-2.977l0.048,5.954h1.2V18.635z"/>
		<path d="M48.981,19.259c-0.384-0.48-0.96-0.72-1.777-0.72c-0.864,0-1.44,0.24-1.777,0.72c-0.384,0.48-0.528,1.152-0.528,2.017
			v3.169c0,0.864,0.144,1.536,0.528,2.017c0.336,0.48,0.912,0.72,1.777,0.768c0.816-0.048,1.392-0.288,1.777-0.768
			c0.336-0.48,0.528-1.152,0.48-2.017v-3.169C49.509,20.411,49.317,19.739,48.981,19.259z M46.484,20.027
			c0.144-0.24,0.384-0.336,0.72-0.336c0.336,0,0.528,0.096,0.672,0.336c0.096,0.24,0.144,0.528,0.144,0.912v3.889
			c0,0.337-0.048,0.624-0.144,0.864c-0.144,0.24-0.336,0.384-0.672,0.384c-0.336,0-0.576-0.144-0.72-0.384
			c-0.096-0.24-0.144-0.528-0.096-0.864v-3.889C46.34,20.555,46.388,20.267,46.484,20.027z"/>
		<path d="M50.998,18.635v8.451h1.248v-5.041l1.92,5.041h0.96v-8.451h-1.2v4.849l-1.92-4.849H50.998z"/>
		<path d="M65.786,21.035c0-0.768-0.144-1.344-0.48-1.777c-0.288-0.384-0.816-0.624-1.537-0.624h-2.304v8.451h1.44V23.34h0.768
			c0.672,0,1.152-0.144,1.536-0.528C65.594,22.476,65.786,21.851,65.786,21.035z M62.905,19.739h0.528
			c0.432,0,0.72,0.096,0.864,0.288c0.096,0.24,0.144,0.577,0.144,1.008c0,0.432-0.048,0.768-0.192,0.96
			c-0.144,0.192-0.432,0.288-0.817,0.24h-0.528V19.739z"/>
		<path d="M68.523,19.739h1.873v-1.104h-3.313v8.451h3.313v-1.057h-1.873v-2.785h1.488v-1.057h-1.488V19.739z"/>
		<path d="M60.264,19.787v-1.152h-3.937v1.152h1.248v7.298h1.488v-7.298H60.264z"/>
	</g>
	<g>
		<polygon points="34.015,16.981 33.102,18.25 33.813,19.643 32.713,20.754 33.196,22.241 31.934,23.164 32.177,24.708 
			30.786,25.422 30.784,26.984 29.299,27.473 29.053,29.016 27.51,29.267 27.027,30.754 25.464,30.76 24.755,32.153 23.21,31.916 
			22.29,33.18 20.802,32.701 19.695,33.805 18.3,33.099 17.035,34.016 15.766,33.103 14.374,33.814 13.263,32.714 11.776,33.196 
			10.852,31.935 9.309,32.178 8.595,30.787 7.032,30.785 6.544,29.3 5,29.054 4.749,27.511 3.263,27.028 3.255,25.465 1.863,24.755 
			2.1,23.211 0.837,22.291 1.314,20.803 0.211,19.695 0.917,18.3 0,17.034 0.913,15.765 0.203,14.373 1.302,13.263 0.82,11.776 
			2.081,10.852 1.838,9.308 3.229,8.594 3.232,7.032 4.717,6.543 4.962,5 6.505,4.749 6.988,3.262 8.551,3.255 9.261,1.863 
			10.805,2.1 11.725,0.836 13.213,1.315 14.32,0.211 15.715,0.917 16.981,0 18.25,0.913 19.642,0.203 20.752,1.302 22.239,0.82 
			23.163,2.081 24.707,1.839 25.42,3.229 26.984,3.232 27.472,4.717 29.015,4.962 29.266,6.505 30.753,6.989 30.76,8.552 
			32.153,9.261 31.915,10.806 33.179,11.726 32.701,13.213 33.804,14.32 33.098,15.716 		"/>
		<g>
			<path fill="#FFFFFF" d="M27.39,23.268L21.822,8.484c-0.22-0.581-0.777-0.966-1.399-0.966c-0.621,0-1.178,0.385-1.398,0.966
				l-2.166,5.729l-1.598,4.229l-0.114,0.3c0,0.001,0,0.002,0,0.002s-0.76,2.012-0.767,2.035c-0.698,2.155-2.27,2.732-3.438,2.355
				c-0.436-0.141-1.125-0.509-0.859-1.395l3.212-8.499l1.53,4.046l1.612-4.189l-1.744-4.614c-0.22-0.581-0.777-0.966-1.399-0.966
				c-0.621,0-1.178,0.385-1.398,0.966L7.272,20.725c-0.01,0.024-0.018,0.048-0.025,0.071c-0.723,2.252,0.446,4.431,2.779,5.184
				c2.332,0.751,5.362-0.201,6.827-3.329l3.57-9.41l4.171,11.084c0.226,0.599,0.794,0.967,1.398,0.967
				c0.176,0,0.354-0.03,0.528-0.097C27.292,24.904,27.682,24.04,27.39,23.268z"/>
		</g>
	</g>
</g>
</svg>
