<?xml version="1.0" encoding="utf-8"?>
<!-- Generator: Adobe Illustrator 26.5.0, SVG Export Plug-In . SVG Version: 6.00 Build 0)  -->
<svg version="1.1" id="Filet_noir" xmlns="http://www.w3.org/2000/svg" xmlns:xlink="http://www.w3.org/1999/xlink" x="0px" y="0px"
	 viewBox="0 0 194.173 70.867" enable-background="new 0 0 194.173 70.867" xml:space="preserve">
<g>
	<g>
		<path d="M158.561,16.416h3.201V32.02h2.5V16.416h3.202v-2.2h-8.903V16.416z"/>
		<path d="M156.561,14.215h-2.601V32.02h2.601V14.215z"/>
		<path d="M151.359,18.617c-0.1-1.4-0.601-2.602-1.501-3.401c-0.899-0.8-2.1-1.2-3.601-1.2c-1.4,0-2.4,0.4-3.301,1.1
			c-0.7,0.801-1.101,1.802-1.2,3.201c0,0.9,0.2,1.801,0.6,2.401c0.301,0.7,0.801,1.3,1.301,1.7l3.201,2.601
			c0.5,0.301,0.9,0.801,1.3,1.2c0.301,0.5,0.601,1.201,0.601,1.901c0,1.3-0.601,1.9-1.9,2c-0.9-0.1-1.601-0.5-1.9-1.3
			c-0.4-0.7-0.601-1.601-0.601-2.601l-2.601,0.701c0.1,1.5,0.6,2.8,1.4,3.801c0.8,0.9,2.101,1.4,3.701,1.4
			c1.4,0,2.5-0.3,3.301-1.101c0.7-0.7,1.101-1.7,1.2-3.001c-0.1-1.2-0.4-2.101-0.9-2.9c-0.5-0.9-1-1.501-1.7-2.001l-3.101-2.501
			c-0.4-0.399-0.7-0.7-0.9-1.101c-0.301-0.399-0.4-0.899-0.4-1.5c0-1.3,0.601-1.9,1.9-1.9c0.9,0,1.501,0.3,1.9,0.9
			c0.301,0.6,0.601,1.4,0.601,2.2L151.359,18.617z"/>
		<path d="M172.266,13.014h1.301l2.501-3.801h-2.501L172.266,13.014z"/>
		<path d="M176.367,14.215h-7.002V32.02h7.002v-1.9h-4.401v-6.401h3.101v-1.901h-3.101v-5.701h4.401V14.215z"/>
		<path d="M187.171,21.517c-0.5-0.4-1.301-0.7-2.401-0.7h-2.501V32.02h2.401c1.2,0,2.101-0.3,2.501-0.899
			c0.5-0.601,0.8-1.501,0.8-2.701v-4.401C187.971,22.818,187.671,22.017,187.171,21.517z M186.07,22.618c0.199,0.5,0.3,1,0.3,1.801
			v3.601c0,0.801-0.101,1.5-0.2,2.001c-0.2,0.5-0.6,0.7-1.4,0.8h-0.9v-8.803h0.801C185.47,22.017,185.97,22.217,186.07,22.618z"/>
		<path d="M171.466,38.823h-2.901v17.605h2.901V38.823z"/>
		<path d="M181.969,41.124v-2.301h-6.902v17.605h6.902v-2.201h-3.901v-5.802h3.102v-2.201h-3.102v-5.101H181.969z"/>
		<path d="M152.359,38.823h-3.001v17.605h7.003v-2.201h-4.002V38.823z"/>
		<path d="M161.963,38.823h-3.001v17.605h7.002v-2.201h-4.001V38.823z"/>
		<path d="M184.769,56.428h3.001v-8.003h1.4l2.001,8.003h3.001l-2.302-8.603c0.701-0.4,1.302-0.9,1.601-1.602
			c0.301-0.8,0.4-1.7,0.4-2.7c0-1.801-0.5-3.001-1.3-3.701c-0.9-0.7-2.201-1-3.901-1h-3.901V56.428z M187.77,46.425v-5.402h1.101
			c0.8,0,1.4,0.2,1.7,0.7c0.4,0.4,0.5,1.1,0.5,2.001c0,0.9-0.2,1.601-0.6,2c-0.3,0.5-0.9,0.701-1.801,0.701H187.77z"/>
		<path d="M194.173,22.017v-1.2h-4.402V32.02h4.402v-1.2h-2.802v-4.001h2.001v-1.2h-2.001v-3.602H194.173z"/>
		<path d="M111.747,14.215h-2.601l3.802,17.805h2.601l3.801-17.805h-2.501l-2.601,14.004L111.747,14.215z"/>
		<path d="M128.352,16.116v-1.9h-7.002V32.02h7.002v-1.9h-4.401v-6.401h3.101v-1.901h-3.101v-5.701H128.352z"/>
		<path d="M133.754,14.215h-3.2V32.02h2.601v-8.302h1.9l2.501,8.302h2.601l-2.901-8.902c1.501-0.601,2.201-2.001,2.201-4.201
			c0-1.7-0.5-2.901-1.501-3.701C136.955,14.515,135.555,14.115,133.754,14.215z M133.754,16.116c1.101,0,1.801,0.2,2.401,0.601
			c0.5,0.5,0.8,1.2,0.8,2.2c0,1.101-0.3,1.801-0.8,2.301c-0.601,0.4-1.301,0.6-2.401,0.6h-0.6v-5.701H133.754z"/>
		<path d="M89.141,14.215H86.64v11.403c0,1.2-0.1,2.301-0.399,3.101c-0.301,0.9-1.001,1.301-2.201,1.4
			c-1.101-0.1-1.801-0.5-2.101-1.4c-0.3-0.8-0.5-1.9-0.4-3.101V14.215h-2.601v11.403c-0.1,2,0.301,3.601,1.101,4.802
			c0.7,1.1,2.101,1.7,4.001,1.8c2.001-0.1,3.201-0.7,4.001-1.8c0.801-1.201,1.101-2.802,1.101-4.802V14.215z"/>
		<path d="M101.044,14.215h-2.5v11.003l-4.502-11.003h-1.9V32.02h2.601V20.117l4.502,11.903h1.8V14.215z"/>
		<path d="M106.946,14.215h-2.602V32.02h2.602V14.215z"/>
		<path d="M91.041,38.823H87.04l-2,11.804l-1.901-11.804h-4.201v17.605h2.601l0.101-12.404l2.101,12.404h2.701
			c0.3-1.901,0.6-4.001,1-6.202c0.3-2.101,0.7-4.201,1-6.202l0.101,12.404h2.5V38.823z"/>
		<path d="M102.045,40.123c-0.801-1-2.001-1.5-3.701-1.5c-1.801,0-3.001,0.5-3.701,1.5c-0.801,1.001-1.101,2.4-1.101,4.201v6.603
			c0,1.801,0.3,3.2,1.101,4.201c0.7,1,1.9,1.5,3.701,1.601c1.7-0.101,2.9-0.601,3.701-1.601c0.7-1.001,1.1-2.4,1-4.201v-6.603
			C103.144,42.523,102.745,41.124,102.045,40.123z M96.843,41.723c0.301-0.5,0.801-0.7,1.501-0.7c0.7,0,1.1,0.2,1.4,0.7
			c0.2,0.501,0.3,1.1,0.3,1.9v8.103c0,0.701-0.1,1.301-0.3,1.801c-0.301,0.5-0.7,0.801-1.4,0.801c-0.7,0-1.2-0.301-1.501-0.801
			c-0.2-0.5-0.3-1.1-0.2-1.801v-8.103C96.543,42.824,96.643,42.224,96.843,41.723z"/>
		<path d="M106.246,38.823v17.605h2.601V45.925l4.001,10.503h2.001V38.823h-2.501v10.103l-4.001-10.103H106.246z"/>
		<path d="M137.056,43.824c0-1.6-0.301-2.801-1.001-3.701c-0.601-0.8-1.7-1.3-3.201-1.3h-4.801v17.605h3.001v-7.803h1.601
			c1.4,0,2.4-0.3,3.2-1.101C136.655,46.825,137.056,45.524,137.056,43.824z M131.054,41.124h1.1c0.9,0,1.501,0.199,1.801,0.6
			c0.2,0.501,0.301,1.201,0.301,2.1c0,0.9-0.101,1.601-0.4,2.001c-0.301,0.399-0.9,0.601-1.701,0.5h-1.1V41.124z"/>
		<path d="M142.757,41.124h3.901v-2.301h-6.902v17.605h6.902v-2.201h-3.901v-5.802h3.101v-2.201h-3.101V41.124z"/>
		<path d="M125.552,41.223v-2.4h-8.202v2.4h2.601v15.205h3.101V41.223H125.552z"/>
	</g>
	<g>
		<path d="M35.488,70.867l-2.643-1.902l-2.9,1.479l-2.314-2.291l-3.098,1.006l-1.924-2.628l-3.218,0.506l-1.486-2.898l-3.257-0.004
			l-1.016-3.095l-3.216-0.512l-0.523-3.214l-3.098-1.007l-0.015-3.256L3.88,51.573l0.495-3.219l-2.633-1.916l0.995-3.1l-2.298-2.308
			l1.471-2.905L0,35.49l1.902-2.645l-1.48-2.899l2.291-2.314l-1.005-3.098l2.628-1.924l-0.506-3.218l2.898-1.486l0.006-3.257
			l3.093-1.017l0.513-3.216l3.215-0.522l1.006-3.097l3.256-0.015l1.478-2.902l3.22,0.495l1.915-2.633l3.101,0.995l2.307-2.298
			l2.906,1.471l2.637-1.91l2.642,1.901l2.901-1.48l2.313,2.291l3.098-1.005l1.924,2.627l3.218-0.505l1.486,2.897l3.258,0.005
			l1.015,3.094l3.217,0.513l0.522,3.214l3.098,1.006l0.015,3.257l2.901,1.478l-0.494,3.218l2.632,1.916l-0.995,3.101l2.299,2.306
			l-1.472,2.906l1.911,2.637l-1.902,2.644l1.479,2.9l-2.29,2.315l1.005,3.097l-2.627,1.925l0.505,3.216l-2.898,1.487l-0.005,3.257
			l-3.093,1.017l-0.512,3.215l-3.215,0.522l-1.007,3.097l-3.256,0.016l-1.478,2.902l-3.22-0.496l-1.915,2.634l-3.101-0.996
			l-2.307,2.299l-2.905-1.471L35.488,70.867z M32.871,68.633l2.617,1.883l2.611-1.892l2.876,1.456l2.284-2.275l3.069,0.986
			l1.897-2.607l3.187,0.49l1.463-2.873l3.225-0.016l0.997-3.066l3.183-0.517l0.507-3.184l3.063-1.007l0.005-3.224l2.868-1.472
			l-0.5-3.187l2.603-1.904l-0.997-3.067l2.269-2.29l-1.465-2.872l1.885-2.617l-1.894-2.611l1.457-2.877l-2.276-2.283l0.986-3.07
			l-2.607-1.896l0.491-3.187l-2.873-1.464l-0.016-3.225l-3.066-0.996l-0.519-3.182l-3.184-0.508l-1.006-3.064l-3.225-0.005
			l-1.473-2.869l-3.185,0.5L46.226,2.04l-3.067,0.997l-2.291-2.27l-2.873,1.465l-2.617-1.884l-2.61,1.893L29.89,0.786l-2.284,2.275
			l-3.069-0.985l-1.897,2.606l-3.187-0.49l-1.463,2.873L14.765,7.08l-0.996,3.066l-3.183,0.518l-0.508,3.185l-3.062,1.006
			L7.01,18.079l-2.868,1.473l0.5,3.185L2.04,24.641l0.996,3.066L0.767,30l1.465,2.871l-1.883,2.617l1.892,2.611l-1.456,2.878
			L3.06,43.26l-0.985,3.07l2.606,1.896l-0.49,3.188l2.873,1.463l0.015,3.225l3.067,0.997l0.518,3.182l3.184,0.508l1.007,3.063
			l3.224,0.005l1.473,2.868l3.185-0.5l1.906,2.601l3.065-0.995l2.292,2.269L32.871,68.633z"/>
	</g>
	<g>
		<path d="M51.919,45.229l-8.773-23.296c-0.347-0.915-1.226-1.521-2.204-1.521c-0.98,0-1.857,0.607-2.204,1.521l-3.412,9.029
			l-2.518,6.662l-0.181,0.475v0.002c0,0-1.197,3.171-1.209,3.207c-1.1,3.394-3.577,4.304-5.417,3.709
			c-0.688-0.222-1.773-0.802-1.354-2.196l5.062-13.392l2.411,6.376l2.541-6.601l-2.747-7.271c-0.348-0.915-1.226-1.521-2.205-1.521
			c-0.98,0-1.857,0.607-2.202,1.521l-7.29,19.287c-0.015,0.038-0.028,0.075-0.04,0.113c-1.139,3.548,0.703,6.981,4.379,8.168
			c3.675,1.183,8.449-0.317,10.757-5.246l5.629-14.826l6.571,17.465c0.355,0.943,1.252,1.524,2.203,1.524
			c0.277,0,0.559-0.05,0.832-0.153C51.766,47.806,52.38,46.446,51.919,45.229z"/>
	</g>
	<g>
		<path d="M28.475,16.372l1.002,2.927c0.042-0.003,0.084-0.003,0.126-0.004L28.475,16.372z"/>
		<polygon points="35.548,27.197 35.433,15.148 35.116,27.234 35.325,27.788 		"/>
		<polygon points="51.007,22.408 46.033,26.42 46.129,26.672 		"/>
		<polygon points="54.544,42.437 51.645,41.319 51.7,41.464 		"/>
		<polygon points="15.099,35.482 21.14,35.604 21.233,35.358 		"/>
		<polygon points="15.403,31.961 22.028,33.254 22.122,33.003 		"/>
		<polygon points="15.403,39.001 20.133,38.268 20.21,38.064 		"/>
		<path d="M16.322,42.437l2.634-0.901c0.011-0.042,0.021-0.084,0.031-0.127L16.322,42.437z"/>
		<polygon points="54.544,28.524 47.708,30.866 47.806,31.125 		"/>
		<path d="M42.389,16.371l-1.132,2.935c0.041,0.004,0.081,0.01,0.122,0.015L42.389,16.371z"/>
		<polygon points="16.322,28.526 22.861,31.048 22.957,30.795 		"/>
		<path d="M45.606,17.874l-1.784,2.95c0.029,0.042,0.056,0.086,0.082,0.13L45.606,17.874z"/>
		<polygon points="48.508,19.907 45.064,23.846 45.148,24.07 		"/>
		<polygon points="55.462,31.958 48.525,33.036 48.623,33.295 		"/>
		<polygon points="55.462,39.001 50.401,38.013 50.481,38.23 		"/>
		<polygon points="55.768,35.482 49.399,35.354 49.494,35.607 		"/>
		<polygon points="53.041,25.306 46.894,28.704 46.992,28.965 		"/>
		<polygon points="19.857,22.408 24.57,26.529 24.662,26.284 		"/>
		<path d="M25.261,17.873l1.604,2.901c0.026-0.039,0.054-0.076,0.082-0.114L25.261,17.873z"/>
		<polygon points="22.357,19.909 25.568,23.887 25.649,23.673 		"/>
		<path d="M33.245,22.284l-1.333-6.832l0.889,5.729c0.06,0.115,0.116,0.233,0.163,0.357L33.245,22.284z"/>
		<polygon points="17.824,25.307 23.691,28.853 23.786,28.603 		"/>
		<path d="M37.62,22.284l1.333-6.832l-0.889,5.729c-0.06,0.115-0.115,0.233-0.162,0.357L37.62,22.284z"/>
	</g>
	<g>
		<path d="M35.433,66.293c-17.016,0-30.859-13.844-30.859-30.858c0-17.017,13.844-30.86,30.859-30.86
			c17.018,0,30.86,13.844,30.86,30.86C66.293,52.449,52.45,66.293,35.433,66.293z M35.433,4.797
			c-16.892,0-30.636,13.744-30.636,30.637c0,16.892,13.744,30.635,30.636,30.635c16.893,0,30.637-13.743,30.637-30.635
			C66.069,18.542,52.325,4.797,35.433,4.797z"/>
	</g>
	<g>
		<path d="M35.433,56.956c-11.867,0-21.523-9.655-21.523-21.521c0-11.868,9.656-21.524,21.523-21.524
			c11.868,0,21.523,9.656,21.523,21.524C56.956,47.3,47.301,56.956,35.433,56.956z M35.433,14.135
			c-11.743,0-21.298,9.555-21.298,21.299c0,11.743,9.555,21.297,21.298,21.297c11.744,0,21.3-9.554,21.3-21.297
			C56.732,23.69,47.177,14.135,35.433,14.135z"/>
	</g>
	<g>
		<path d="M10.133,30.337c0,0.369-0.298,0.668-0.666,0.668c-0.368,0-0.665-0.299-0.665-0.668c0-0.367,0.297-0.666,0.665-0.666
			C9.835,29.671,10.133,29.97,10.133,30.337z"/>
		<path d="M61.667,30.338c0,0.369-0.297,0.668-0.667,0.668c-0.367,0-0.665-0.299-0.665-0.668c0-0.367,0.297-0.666,0.664-0.666
			C61.369,29.672,61.667,29.971,61.667,30.338z"/>
		<g>
			<path d="M11.967,37.012l0.113,1.031c0.115,1.055-0.341,1.461-1.32,1.568l-1.778,0.195c-1.026,0.113-1.62-0.184-1.729-1.18
				l-0.119-1.084L11.967,37.012z M7.731,38.527c0.079,0.721,0.521,0.684,1.303,0.598l1.569-0.173
				c0.746-0.082,1.048-0.187,0.974-0.866l-0.039-0.357L7.69,38.152L7.731,38.527z"/>
			<path d="M13.714,44.682l0.752,1.691l-0.46,0.205l-0.481-1.082l-1.468,0.654l0.39,0.878l-0.438,0.195l-0.391-0.878L9.991,47.07
				l0.486,1.094l-0.444,0.197l-0.757-1.702L13.714,44.682z"/>
			<path d="M17.346,50.85l0.785,0.887c0.566,0.64,0.409,1.212-0.224,1.773c-0.579,0.515-1.199,0.537-1.715-0.045l-0.348-0.393
				l-1.691,1.502l-0.441-0.499L17.346,50.85z M16.412,52.979c0.379,0.428,0.625,0.461,1.074,0.062
				c0.516-0.458,0.587-0.64,0.146-1.138l-0.207-0.233l-1.216,1.079L16.412,52.979z"/>
			<path d="M21.347,58.699l1.598-2.794l0.552,0.316l-1.613,2.82c-0.312,0.547-0.493,1.017-0.007,1.295s0.799-0.115,1.111-0.662
				l1.613-2.82l0.547,0.313l-1.598,2.794c-0.506,0.885-1.039,1.354-1.938,0.838C20.707,60.281,20.841,59.584,21.347,58.699z"/>
			<path d="M30.357,59.013l0.64,0.138l-1.026,4.746l-0.64-0.138L30.357,59.013z"/>
			<path d="M36.707,63.093l0.573-0.212c0.081,0.517,0.255,1.026,0.766,0.982c0.341-0.029,0.506-0.242,0.474-0.613
				c-0.038-0.437-0.275-0.646-0.598-0.889l-0.861-0.649c-0.342-0.254-0.509-0.547-0.551-1.031c-0.062-0.712,0.332-1.155,1.019-1.214
				c0.758-0.065,1.157,0.305,1.307,1.147l-0.551,0.203c-0.077-0.475-0.218-0.873-0.711-0.83c-0.329,0.028-0.507,0.224-0.477,0.577
				c0.025,0.293,0.128,0.453,0.369,0.631l0.867,0.648c0.386,0.293,0.747,0.695,0.799,1.3c0.062,0.718-0.375,1.195-1.039,1.252
				C37.264,64.467,36.827,63.926,36.707,63.093z"/>
			<path d="M47.422,57.289c-0.003,0.03-0.621,0.562-0.631,0.568l-0.244-0.421c0.202-0.192,0.54-0.549,0.587-0.95l0.413-0.24
				l2.435,4.202l-0.545,0.317L47.422,57.289z"/>
			<path d="M55.312,55.702l-0.608-2.197c-0.141-0.487-0.192-0.868-0.596-1.236c-0.329-0.3-0.616-0.394-0.854-0.132
				c-0.305,0.336-0.061,0.71,0.281,1.021l0.12,0.109l-0.425,0.467l-0.124-0.113c-0.644-0.587-0.834-1.19-0.263-1.818
				c0.516-0.567,1.116-0.531,1.698-0.002c0.462,0.421,0.553,0.839,0.686,1.335l0.523,1.96l1.016-1.117l0.4,0.364L55.65,56.01
				L55.312,55.702z"/>
			<path d="M60.525,48.434l-1.253-1.899c-0.284-0.42-0.45-0.767-0.947-0.992c-0.404-0.183-0.706-0.184-0.852,0.139
				c-0.187,0.414,0.161,0.693,0.581,0.884l0.147,0.067l-0.259,0.574l-0.153-0.069c-0.792-0.358-1.158-0.873-0.809-1.646
				c0.315-0.698,0.897-0.85,1.612-0.525c0.568,0.257,0.783,0.626,1.062,1.057l1.1,1.701l0.621-1.375l0.492,0.223l-0.927,2.051
				L60.525,48.434z"/>
			<path d="M62.341,39.699l-2.082-0.224c-0.847-0.091-1.383-0.504-1.294-1.33c0.087-0.814,0.698-1.11,1.545-1.02l2.083,0.224
				c0.835,0.09,1.387,0.517,1.301,1.325S63.17,39.788,62.341,39.699z M62.531,37.983l-2.094-0.226
				c-0.465-0.05-0.904-0.008-0.953,0.443c-0.049,0.457,0.372,0.591,0.837,0.641l2.094,0.226c0.447,0.048,0.906-0.01,0.953-0.449
				C63.415,38.179,62.978,38.031,62.531,37.983z"/>
		</g>
		<g>
			<path d="M10.623,21.599l0.35-0.581l3.749,2.258l0.642-1.064l0.417,0.251l-0.991,1.646L10.623,21.599z"/>
			<path d="M15.191,17.539c0.152-0.194,0.053-0.389-0.28-0.691l-0.213,0.235l-0.502-0.455l0.471-0.52l0.431,0.391
				c0.462,0.419,0.624,0.776,0.347,1.116L15.191,17.539z"/>
			<path d="M18.834,12.43l0.534-0.377l3.653,3.368l-0.524,0.371l-0.888-0.871l-0.808,0.571l0.516,1.134l-0.519,0.367L18.834,12.43z
				 M21.255,14.575l-1.597-1.552l0.936,2.02L21.255,14.575z"/>
			<path d="M26.368,8.506l0.611-0.175l1.722,3.233l-0.28-3.645l0.594-0.17l0.302,4.967l-0.571,0.164L26.368,8.506z"/>
			<path d="M36.193,7.018l1.883,0.096L38.05,7.617l-1.206-0.061l-0.082,1.607l0.978,0.05l-0.024,0.48l-0.978-0.05l-0.091,1.781
				l1.217,0.062l-0.024,0.486l-1.895-0.097L36.193,7.018z"/>
			<path d="M45.188,8.676l0.428,0.174l0.062,3.507l1.215-2.988l0.522,0.212l-1.829,4.499l-0.4-0.163l-0.045-3.598l-1.249,3.071
				l-0.533-0.217L45.188,8.676z"/>
			<path d="M53.699,13.538l0.51,0.429l-3.127,3.72l-0.51-0.428L53.699,13.538z"/>
			<path d="M59.167,19.479l0.52,0.828c0.517,0.823,0.449,1.404-0.333,1.895c-0.482,0.303-0.928,0.384-1.279,0.095l-1.696,1.879
				l-0.347-0.554l1.593-1.75l-0.281-0.447l-1.931,1.211l-0.361-0.574L59.167,19.479z M57.892,21.384
				c0.303,0.483,0.586,0.595,1.114,0.264c0.483-0.303,0.598-0.56,0.27-1.083l-0.159-0.254l-1.362,0.855L57.892,21.384z"/>
		</g>
	</g>
</g>
</svg>
